<svg width="64" height="64" viewBox="0 0 64 64" fill="none" xmlns="http://www.w3.org/2000/svg">
<path d="M42.2083 39.2917C42.2083 40.9025 40.9025 42.2084 39.2917 42.2084C37.6808 42.2084 36.375 40.9025 36.375 39.2917C36.375 37.6809 37.6808 36.375 39.2917 36.375C40.9025 36.375 42.2083 37.6809 42.2083 39.2917Z" fill="#00A9F2"/>
<path d="M27.625 24.7084C27.625 26.3192 26.3192 27.625 24.7083 27.625C23.0975 27.625 21.7917 26.3192 21.7917 24.7084C21.7917 23.0975 23.0975 21.7917 24.7083 21.7917C26.3192 21.7917 27.625 23.0975 27.625 24.7084Z" fill="#00A9F2"/>
<path fill-rule="evenodd" clip-rule="evenodd" d="M42.2968 21.7032C43.1511 22.5575 43.1511 23.9426 42.2968 24.7968L24.7968 42.2968C23.9425 43.1511 22.5575 43.1511 21.7032 42.2968C20.8489 41.4426 20.8489 40.0575 21.7032 39.2032L39.2032 21.7032C40.0575 20.849 41.4425 20.849 42.2968 21.7032Z" fill="#00A9F2"/>
<path fill-rule="evenodd" clip-rule="evenodd" d="M31.8326 0.645875H32.1673C38.9002 0.645837 44.1765 0.645807 48.2934 1.1993C52.5072 1.76583 55.8322 2.94808 58.4421 5.55794C61.052 8.1678 62.2342 11.4929 62.8007 15.7067C63.3542 19.8235 63.3542 25.0999 63.3542 31.8327V32.1674C63.3542 38.9002 63.3542 44.1766 62.8007 48.2934C62.2342 52.5072 61.052 55.8323 58.4421 58.4421C55.8322 61.052 52.5072 62.2342 48.2934 62.8008C44.1765 63.3543 38.9002 63.3542 32.1673 63.3542H31.8327C25.0998 63.3542 19.8235 63.3543 15.7066 62.8008C11.4928 62.2342 8.16775 61.052 5.55789 58.4421C2.94803 55.8323 1.76579 52.5072 1.19926 48.2934C0.645762 44.1766 0.645791 38.9002 0.645829 32.1674V31.8327C0.645791 25.0999 0.645762 19.8235 1.19926 15.7067C1.76579 11.4929 2.94803 8.1678 5.55789 5.55794C8.16775 2.94808 11.4928 1.76583 15.7066 1.1993C19.8235 0.645807 25.0998 0.645837 31.8326 0.645875ZM16.2896 5.53529C12.5609 6.0366 10.313 6.99003 8.65148 8.65153C6.98999 10.313 6.03655 12.561 5.53524 16.2896C5.02547 20.0812 5.02083 25.0636 5.02083 32C5.02083 38.9365 5.02547 43.9188 5.53524 47.7104C6.03655 51.4391 6.98999 53.687 8.65148 55.3485C10.313 57.01 12.5609 57.9635 16.2896 58.4648C20.0812 58.9746 25.0635 58.9792 32 58.9792C38.9365 58.9792 43.9188 58.9746 47.7104 58.4648C51.4391 57.9635 53.687 57.01 55.3485 55.3485C57.01 53.687 57.9634 51.4391 58.4647 47.7104C58.9745 43.9188 58.9792 38.9365 58.9792 32C58.9792 25.0636 58.9745 20.0812 58.4647 16.2896C57.9634 12.561 57.01 10.313 55.3485 8.65153C53.687 6.99003 51.4391 6.0366 47.7104 5.53529C43.9188 5.02552 38.9365 5.02088 32 5.02088C25.0635 5.02088 20.0812 5.02552 16.2896 5.53529Z" fill="#00A9F2"/>
<path d="M42.2083 39.2917C42.2083 40.9025 40.9025 42.2084 39.2917 42.2084C37.6808 42.2084 36.375 40.9025 36.375 39.2917C36.375 37.6809 37.6808 36.375 39.2917 36.375C40.9025 36.375 42.2083 37.6809 42.2083 39.2917Z" stroke="white"/>
<path d="M27.625 24.7084C27.625 26.3192 26.3192 27.625 24.7083 27.625C23.0975 27.625 21.7917 26.3192 21.7917 24.7084C21.7917 23.0975 23.0975 21.7917 24.7083 21.7917C26.3192 21.7917 27.625 23.0975 27.625 24.7084Z" stroke="white"/>
<path fill-rule="evenodd" clip-rule="evenodd" d="M42.2968 21.7032C43.1511 22.5575 43.1511 23.9426 42.2968 24.7968L24.7968 42.2968C23.9425 43.1511 22.5575 43.1511 21.7032 42.2968C20.8489 41.4426 20.8489 40.0575 21.7032 39.2032L39.2032 21.7032C40.0575 20.849 41.4425 20.849 42.2968 21.7032Z" stroke="white"/>
<path fill-rule="evenodd" clip-rule="evenodd" d="M31.8326 0.645875H32.1673C38.9002 0.645837 44.1765 0.645807 48.2934 1.1993C52.5072 1.76583 55.8322 2.94808 58.4421 5.55794C61.052 8.1678 62.2342 11.4929 62.8007 15.7067C63.3542 19.8235 63.3542 25.0999 63.3542 31.8327V32.1674C63.3542 38.9002 63.3542 44.1766 62.8007 48.2934C62.2342 52.5072 61.052 55.8323 58.4421 58.4421C55.8322 61.052 52.5072 62.2342 48.2934 62.8008C44.1765 63.3543 38.9002 63.3542 32.1673 63.3542H31.8327C25.0998 63.3542 19.8235 63.3543 15.7066 62.8008C11.4928 62.2342 8.16775 61.052 5.55789 58.4421C2.94803 55.8323 1.76579 52.5072 1.19926 48.2934C0.645762 44.1766 0.645791 38.9002 0.645829 32.1674V31.8327C0.645791 25.0999 0.645762 19.8235 1.19926 15.7067C1.76579 11.4929 2.94803 8.1678 5.55789 5.55794C8.16775 2.94808 11.4928 1.76583 15.7066 1.1993C19.8235 0.645807 25.0998 0.645837 31.8326 0.645875ZM16.2896 5.53529C12.5609 6.0366 10.313 6.99003 8.65148 8.65153C6.98999 10.313 6.03655 12.561 5.53524 16.2896C5.02547 20.0812 5.02083 25.0636 5.02083 32C5.02083 38.9365 5.02547 43.9188 5.53524 47.7104C6.03655 51.4391 6.98999 53.687 8.65148 55.3485C10.313 57.01 12.5609 57.9635 16.2896 58.4648C20.0812 58.9746 25.0635 58.9792 32 58.9792C38.9365 58.9792 43.9188 58.9746 47.7104 58.4648C51.4391 57.9635 53.687 57.01 55.3485 55.3485C57.01 53.687 57.9634 51.4391 58.4647 47.7104C58.9745 43.9188 58.9792 38.9365 58.9792 32C58.9792 25.0636 58.9745 20.0812 58.4647 16.2896C57.9634 12.561 57.01 10.313 55.3485 8.65153C53.687 6.99003 51.4391 6.0366 47.7104 5.53529C43.9188 5.02552 38.9365 5.02088 32 5.02088C25.0635 5.02088 20.0812 5.02552 16.2896 5.53529Z" stroke="white"/>
</svg>
