<svg width="62" height="64" viewBox="0 0 62 64" fill="none" xmlns="http://www.w3.org/2000/svg">
<path fill-rule="evenodd" clip-rule="evenodd" d="M31 21.0625C24.9594 21.0625 20.0625 25.9594 20.0625 32C20.0625 38.0406 24.9594 42.9375 31 42.9375C37.0406 42.9375 41.9375 38.0406 41.9375 32C41.9375 25.9594 37.0406 21.0625 31 21.0625ZM24.4375 32C24.4375 28.3757 27.3757 25.4375 31 25.4375C34.6244 25.4375 37.5625 28.3757 37.5625 32C37.5625 35.6244 34.6244 38.5625 31 38.5625C27.3757 38.5625 24.4375 35.6244 24.4375 32Z" fill="#00A9F2"/>
<path fill-rule="evenodd" clip-rule="evenodd" d="M30.9264 0.645875C29.63 0.645853 28.5478 0.645836 27.6594 0.706454C26.7345 0.769558 25.8609 0.9056 25.0139 1.25643C23.0486 2.07049 21.4871 3.63194 20.673 5.59727C20.2492 6.62042 20.1345 7.69872 20.0906 8.87077C20.0554 9.81293 19.5799 10.599 18.8782 11.0042C18.1765 11.4093 17.258 11.428 16.4245 10.9874C15.3875 10.4394 14.3963 9.99961 13.2983 9.85505C11.1892 9.57739 9.05625 10.1489 7.36858 11.4439C6.64127 12.002 6.08665 12.6905 5.56956 13.46C5.07284 14.1991 4.53175 15.1363 3.8836 16.259L3.80994 16.3866C3.16175 17.5092 2.62064 18.4464 2.22891 19.2461C1.82113 20.0787 1.50213 20.9032 1.38247 21.8122C1.10481 23.9212 1.67634 26.0542 2.97133 27.7419C3.64543 28.6203 4.52173 29.2588 5.51468 29.8827C6.31321 30.3845 6.75633 31.1895 6.75629 32C6.75624 32.8104 6.31312 33.6153 5.51469 34.1169C4.52162 34.7409 3.6452 35.3794 2.97105 36.258C1.67606 37.9457 1.10453 40.0787 1.38219 42.1877C1.50185 43.0966 1.82084 43.9212 2.22863 44.7537C2.62035 45.5535 3.16145 46.4906 3.80963 47.6133L3.88331 47.7409C4.53146 48.8636 5.07255 49.8008 5.56928 50.5399C6.08636 51.3093 6.64099 51.9979 7.3683 52.556C9.05596 53.851 11.1889 54.4225 13.298 54.1448C14.3959 54.0003 15.3871 53.5606 16.424 53.0125C17.2576 52.5719 18.1763 52.5907 18.8781 52.9958C19.5799 53.401 20.0554 54.1872 20.0906 55.1295C20.1345 56.3015 20.2493 57.3797 20.673 58.4028C21.4871 60.3681 23.0486 61.9296 25.0139 62.7436C25.8609 63.0945 26.7345 63.2305 27.6594 63.2936C28.5478 63.3542 29.63 63.3542 30.9263 63.3542H31.0737C32.37 63.3542 33.4522 63.3542 34.3406 63.2936C35.2655 63.2305 36.1391 63.0945 36.9861 62.7436C38.9514 61.9296 40.5129 60.3681 41.327 58.4028C41.7508 57.3796 41.8655 56.3013 41.9094 55.1292C41.9446 54.187 42.42 53.4009 43.1217 52.9958C43.8235 52.5905 44.7421 52.5718 45.5758 53.0124C46.6127 53.5604 47.6038 54.0001 48.7017 54.1446C50.8108 54.4223 52.9438 53.8507 54.6314 52.5558C55.3587 51.9977 55.9133 51.3091 56.4304 50.5397C56.9271 49.8006 57.4682 48.8635 58.1163 47.7409L58.19 47.6132C58.8381 46.4906 59.3794 45.5532 59.7711 44.7535C60.1789 43.921 60.4979 43.0964 60.6175 42.1875C60.8952 40.0785 60.3237 37.9455 59.0287 36.2578C58.3545 35.3793 57.4782 34.7408 56.4851 34.1168C55.6867 33.6152 55.2437 32.8102 55.2437 31.9999C55.2438 31.1896 55.6868 30.3848 56.4851 29.8832C57.4783 29.2592 58.3548 28.6207 59.0289 27.7421C60.3239 26.0544 60.8955 23.9214 60.6178 21.8124C60.4982 20.9034 60.1792 20.0789 59.7714 19.2463C59.3797 18.4467 58.8386 17.5095 58.1905 16.387L58.1168 16.2593C57.4686 15.1366 56.9274 14.1993 56.4307 13.4602C55.9136 12.6908 55.359 12.0022 54.6317 11.4441C52.944 10.1491 50.8111 9.57759 48.702 9.85525C47.6041 9.9998 46.6129 10.4395 45.576 10.9875C44.7423 11.4282 43.8237 11.4094 43.1219 11.0042C42.4201 10.5991 41.9446 9.81288 41.9094 8.8706C41.8655 7.69862 41.7507 6.62038 41.327 5.59727C40.5129 3.63194 38.9514 2.07049 36.9861 1.25643C36.1391 0.9056 35.2655 0.769558 34.3406 0.706454C33.4522 0.645836 32.37 0.645853 31.0736 0.645875H30.9264ZM26.6881 5.2984C26.9132 5.20519 27.255 5.11921 27.9572 5.07131C28.6789 5.02206 29.6111 5.02087 31 5.02087C32.3889 5.02087 33.3211 5.02206 34.0428 5.07131C34.745 5.11921 35.0868 5.20519 35.3119 5.2984C36.2052 5.66843 36.9149 6.37818 37.285 7.27151C37.4017 7.5533 37.4985 7.99258 37.5374 9.03412C37.6238 11.3452 38.8167 13.5705 40.9344 14.7931C43.0521 16.0158 45.5757 15.9362 47.6204 14.8555C48.5418 14.3685 48.9707 14.2326 49.2731 14.1928C50.2317 14.0666 51.2013 14.3264 51.9684 14.915C52.1616 15.0633 52.407 15.3164 52.7996 15.9005C53.2031 16.5009 53.6702 17.3076 54.3646 18.5105C55.0591 19.7133 55.5242 20.5212 55.8424 21.1708C56.152 21.8029 56.2484 22.1419 56.2802 22.3834C56.4064 23.3421 56.1467 24.3116 55.558 25.0787C55.3723 25.3207 55.0402 25.6242 54.1576 26.1788C52.1994 27.4091 50.8688 29.5546 50.8687 31.9997C50.8686 34.445 52.1992 36.5908 54.1575 37.8213C55.04 38.3757 55.3721 38.6792 55.5578 38.9212C56.1464 39.6883 56.4062 40.6578 56.28 41.6165C56.2482 41.858 56.1517 42.197 55.8421 42.829C55.5239 43.4787 55.0588 44.2866 54.3644 45.4894C53.6699 46.6923 53.2028 47.4989 52.7993 48.0994C52.4067 48.6835 52.1613 48.9366 51.9681 49.0848C51.201 49.6735 50.2314 49.9333 49.2728 49.807C48.9704 49.7672 48.5416 49.6314 47.6202 49.1444C45.5754 48.0637 43.0517 47.9842 40.934 49.207C38.8166 50.4297 37.6238 52.6548 37.5374 54.9657C37.4985 56.0074 37.4017 56.4467 37.285 56.7286C36.9149 57.6219 36.2052 58.3316 35.3119 58.7017C35.0868 58.7949 34.745 58.8809 34.0428 58.9288C33.3211 58.978 32.3889 58.9792 31 58.9792C29.6111 58.9792 28.6789 58.978 27.9572 58.9288C27.255 58.8809 26.9132 58.7949 26.6881 58.7017C25.7948 58.3316 25.0851 57.6219 24.715 56.7286C24.5983 56.4468 24.5015 56.0075 24.4626 54.966C24.3761 52.6549 23.1833 50.4296 21.0656 49.207C18.9479 47.9843 16.4243 48.0639 14.3796 49.1446C13.4582 49.6316 13.0294 49.7674 12.7269 49.8073C11.7683 49.9335 10.7987 49.6737 10.0316 49.085C9.83839 48.9368 9.59299 48.6837 9.20044 48.0996C8.79691 47.4991 8.32982 46.6925 7.63535 45.4896C6.94089 44.2868 6.47584 43.4789 6.15761 42.8292C5.84803 42.1972 5.75155 41.8582 5.71976 41.6167C5.59355 40.658 5.85334 39.6885 6.44197 38.9214C6.62765 38.6794 6.95971 38.3759 7.84227 37.8214C9.80047 36.591 11.1312 34.4454 11.1313 32.0002C11.1314 29.5547 9.80068 27.4088 7.8423 26.1783C6.95994 25.6239 6.62791 25.3205 6.44225 25.0785C5.85362 24.3114 5.59384 23.3419 5.72005 22.3832C5.75184 22.1417 5.84832 21.8027 6.15789 21.1706C6.47613 20.521 6.94117 19.7131 7.63564 18.5103C8.3301 17.3074 8.7972 16.5007 9.20073 15.9003C9.59328 15.3162 9.83868 15.0631 10.0319 14.9148C10.799 14.3262 11.7686 14.0664 12.7272 14.1926C13.0297 14.2324 13.4585 14.3683 14.3801 14.8554C16.4247 15.9361 18.9481 16.0156 21.0657 14.793C23.1833 13.5704 24.3762 11.3453 24.4626 9.03426C24.5015 7.99262 24.5983 7.55332 24.715 7.27151C25.085 6.37818 25.7948 5.66843 26.6881 5.2984Z" fill="#00A9F2"/>
<path d="M45.5758 53.0124C44.7421 52.5718 43.8235 52.5905 43.1217 52.9958C42.42 53.4009 41.9446 54.187 41.9094 55.1292C41.8655 56.3013 41.7508 57.3796 41.3269 58.4028C40.5129 60.3681 38.9514 61.9296 36.9861 62.7436C36.1391 63.0945 35.2655 63.2305 34.3406 63.2936C33.4522 63.3542 32.37 63.3542 31.0737 63.3542H30.9263C29.63 63.3542 28.5478 63.3542 27.6594 63.2936C26.7345 63.2305 25.8609 63.0945 25.0139 62.7436C23.0486 61.9296 21.4871 60.3681 20.673 58.4028C20.2493 57.3797 20.1345 56.3015 20.0906 55.1295C20.0554 54.1872 19.5799 53.401 18.8781 52.9958C18.1763 52.5907 17.2576 52.5719 16.424 53.0125C15.3871 53.5606 14.3959 54.0003 13.298 54.1448C11.1889 54.4225 9.05596 53.851 7.3683 52.556C6.64099 51.9979 6.08636 51.3093 5.56928 50.5399C5.07255 49.8008 4.53146 48.8636 3.88331 47.7409L3.80963 47.6133C3.16145 46.4906 2.62035 45.5535 2.22863 44.7537C1.82084 43.9212 1.50185 43.0966 1.38219 42.1877C1.10453 40.0787 1.67606 37.9457 2.97105 36.258C3.6452 35.3794 4.52162 34.7409 5.51469 34.1169C6.31312 33.6153 6.75624 32.8104 6.75629 32C6.75633 31.1895 6.31321 30.3845 5.51468 29.8827C4.52173 29.2588 3.64543 28.6203 2.97133 27.7419C1.67634 26.0542 1.10481 23.9212 1.38247 21.8122C1.50213 20.9032 1.82113 20.0787 2.22891 19.2461C2.62064 18.4464 3.16175 17.5092 3.80994 16.3866L3.8836 16.259C4.53175 15.1363 5.07284 14.1991 5.56956 13.46C6.08665 12.6905 6.64127 12.002 7.36858 11.4439C9.05625 10.1489 11.1892 9.57739 13.2983 9.85505C14.3963 9.99961 15.3875 10.4394 16.4245 10.9874C17.258 11.428 18.1765 11.4093 18.8782 11.0042C19.5799 10.599 20.0554 9.81293 20.0906 8.87077C20.1345 7.69872 20.2492 6.62042 20.673 5.59727C21.4871 3.63194 23.0486 2.07049 25.0139 1.25643C25.8609 0.9056 26.7345 0.769558 27.6594 0.706454C28.5478 0.645836 29.63 0.645853 30.9264 0.645875H31.0736C32.37 0.645853 33.4522 0.645836 34.3406 0.706454C35.2655 0.769558 36.1391 0.9056 36.9861 1.25643M45.5758 53.0124L46.598 51.0784M45.5758 53.0124C46.6127 53.5604 47.6038 54.0001 48.7017 54.1446C50.8108 54.4223 52.9438 53.8508 54.6314 52.5558C55.3587 51.9977 55.9133 51.3091 56.4304 50.5397C56.9271 49.8006 57.4682 48.8635 58.1163 47.7409L58.19 47.6132C58.8381 46.4906 59.3794 45.5532 59.7711 44.7535C60.1789 43.921 60.4979 43.0964 60.6175 42.1875C60.8952 40.0785 60.3237 37.9455 59.0287 36.2578M59.0287 36.2578L57.2932 37.5895M59.0287 36.2578C58.3545 35.3793 57.4782 34.7408 56.4851 34.1168C55.6867 33.6152 55.2437 32.8102 55.2437 31.9999C55.2438 31.1896 55.6868 30.3848 56.4851 29.8832C57.4783 29.2592 58.3548 28.6207 59.029 27.7421C60.3239 26.0544 60.8955 23.9214 60.6178 21.8124C60.4982 20.9034 60.1792 20.0789 59.7714 19.2463C59.3797 18.4467 58.8386 17.5095 58.1905 16.387L58.1168 16.2593C57.4686 15.1366 56.9274 14.1993 56.4307 13.4602C55.9136 12.6908 55.359 12.0022 54.6317 11.4441C52.944 10.1491 50.8111 9.57759 48.702 9.85525C47.6041 9.9998 46.6129 10.4395 45.576 10.9875C44.7423 11.4282 43.8237 11.4094 43.1219 11.0042C42.4201 10.5991 41.9446 9.81288 41.9094 8.8706C41.8655 7.69862 41.7507 6.62038 41.327 5.59727C40.5129 3.63194 38.9514 2.07049 36.9861 1.25643M36.9861 1.25643L36.149 3.27741M7.8423 26.1783C9.80068 27.4088 11.1314 29.5547 11.1313 32.0002C11.1312 34.4454 9.80047 36.591 7.84227 37.8214C6.95971 38.3759 6.62765 38.6794 6.44197 38.9214C5.85334 39.6885 5.59355 40.658 5.71976 41.6167C5.75155 41.8582 5.84803 42.1972 6.15761 42.8292C6.47584 43.4789 6.94089 44.2868 7.63535 45.4896C8.32982 46.6925 8.79691 47.4991 9.20044 48.0996C9.59299 48.6837 9.83839 48.9368 10.0316 49.085C10.7987 49.6737 11.7683 49.9335 12.7269 49.8073C13.0293 49.7674 13.4582 49.6316 14.3796 49.1446C16.4243 48.0639 18.9479 47.9843 21.0656 49.207C23.1833 50.4296 24.3761 52.6549 24.4626 54.966C24.5015 56.0075 24.5983 56.4468 24.715 56.7286C25.0851 57.6219 25.7948 58.3316 26.6881 58.7017C26.9132 58.7949 27.255 58.8809 27.9572 58.9288C28.6789 58.978 29.6111 58.9792 31 58.9792C32.3889 58.9792 33.3211 58.978 34.0428 58.9288C34.745 58.8809 35.0868 58.7949 35.3119 58.7017C36.2052 58.3316 36.9149 57.6219 37.285 56.7286C37.4017 56.4467 37.4985 56.0074 37.5374 54.9657C37.6238 52.6548 38.8166 50.4297 40.934 49.207C43.0517 47.9842 45.5754 48.0637 47.6202 49.1444C48.5416 49.6314 48.9704 49.7672 49.2728 49.8071C50.2314 49.9333 51.201 49.6735 51.9681 49.0848C52.1613 48.9366 52.4067 48.6835 52.7993 48.0994C53.2028 47.4989 53.6699 46.6923 54.3644 45.4894C55.0588 44.2866 55.5239 43.4787 55.8421 42.829C56.1517 42.197 56.2482 41.858 56.28 41.6165C56.4062 40.6578 56.1464 39.6883 55.5578 38.9212C55.3721 38.6792 55.04 38.3757 54.1575 37.8213C52.1992 36.5908 50.8686 34.445 50.8687 31.9997C50.8688 29.5546 52.1994 27.4091 54.1576 26.1788C55.0402 25.6242 55.3723 25.3207 55.558 25.0787C56.1467 24.3116 56.4064 23.3421 56.2802 22.3834C56.2484 22.1419 56.152 21.8029 55.8424 21.1708C55.5242 20.5212 55.0591 19.7133 54.3646 18.5105C53.6702 17.3076 53.2031 16.5009 52.7996 15.9005C52.407 15.3164 52.1616 15.0633 51.9684 14.915C51.2013 14.3264 50.2317 14.0666 49.2731 14.1928C48.9707 14.2326 48.5418 14.3685 47.6204 14.8555C45.5757 15.9362 43.0521 16.0158 40.9344 14.7931C38.8167 13.5705 37.6238 11.3452 37.5374 9.03412C37.4985 7.99258 37.4017 7.5533 37.285 7.27151C36.9149 6.37818 36.2052 5.66843 35.3119 5.2984C35.0868 5.20519 34.745 5.11921 34.0428 5.07131C33.3211 5.02206 32.3889 5.02087 31 5.02087C29.6111 5.02087 28.6789 5.02206 27.9572 5.07131C27.255 5.11921 26.9132 5.20519 26.6881 5.2984C25.7948 5.66843 25.085 6.37818 24.715 7.27151M7.8423 26.1783L6.67849 28.0305M7.8423 26.1783C6.95994 25.6239 6.62791 25.3205 6.44225 25.0785C5.85362 24.3114 5.59384 23.3419 5.72005 22.3832C5.75184 22.1417 5.84832 21.8027 6.15789 21.1706C6.47613 20.521 6.94117 19.7131 7.63564 18.5103C8.3301 17.3074 8.7972 16.5007 9.20073 15.9003C9.59328 15.3162 9.83868 15.0631 10.0319 14.9148C10.799 14.3262 11.7686 14.0664 12.7272 14.1926C13.0297 14.2324 13.4585 14.3683 14.3801 14.8554C16.4247 15.9361 18.9481 16.0156 21.0657 14.793C23.1833 13.5704 24.3762 11.3453 24.4626 9.03426C24.5015 7.99262 24.5983 7.55332 24.715 7.27151M24.715 7.27151L22.694 6.43439M31 25.4375C27.3757 25.4375 24.4375 28.3757 24.4375 32C24.4375 35.6244 27.3757 38.5625 31 38.5625C34.6244 38.5625 37.5625 35.6244 37.5625 32C37.5625 28.3757 34.6244 25.4375 31 25.4375ZM20.0625 32C20.0625 25.9594 24.9594 21.0625 31 21.0625C37.0406 21.0625 41.9375 25.9594 41.9375 32C41.9375 38.0407 37.0406 42.9375 31 42.9375C24.9594 42.9375 20.0625 38.0407 20.0625 32Z" stroke="white"/>
</svg>
