<svg width="58" height="64" viewBox="0 0 58 64" fill="none" xmlns="http://www.w3.org/2000/svg">
<path d="M37.9234 27.6236C38.728 26.7224 38.6498 25.3395 37.7486 24.5349C36.8474 23.7303 35.4646 23.8086 34.6599 24.7097L25.875 34.5489L23.3401 31.7097C22.5354 30.8086 21.1526 30.7303 20.2514 31.5349C19.3502 32.3395 19.272 33.7224 20.0766 34.6236L24.2433 39.2902C24.6583 39.755 25.2519 40.0208 25.875 40.0208C26.4981 40.0208 27.0917 39.755 27.5067 39.2902L37.9234 27.6236Z" fill="#00A9F2"/>
<path fill-rule="evenodd" clip-rule="evenodd" d="M29 0.645813C26.2656 0.645813 23.6547 1.54001 19.4432 2.9824L17.3215 3.70871C13.001 5.18764 9.66659 6.32901 7.27967 7.29869C6.07729 7.78715 5.04357 8.26026 4.2112 8.74367C3.41017 9.20886 2.60656 9.7891 2.06059 10.567C1.52093 11.3359 1.24189 12.2811 1.06654 13.191C0.884243 14.137 0.77432 15.2718 0.703372 16.5748C0.5625 19.1619 0.5625 22.7061 0.5625 27.3031V31.9748C0.5625 49.7695 14.0026 58.3011 21.9951 61.7924L22.0742 61.827C23.0652 62.26 23.9968 62.6671 25.0672 62.9411C26.1973 63.2304 27.398 63.3541 29 63.3541C30.602 63.3541 31.8027 63.2304 32.9328 62.9411C34.0032 62.6671 34.9347 62.2601 35.9257 61.827L36.0049 61.7925C43.9974 58.3011 57.4375 49.7695 57.4375 31.9748V27.3036C57.4375 22.7063 57.4375 19.162 57.2966 16.5748C57.2257 15.2718 57.1158 14.137 56.9335 13.191C56.7581 12.2811 56.4791 11.3359 55.9394 10.567C55.3934 9.7891 54.5898 9.20886 53.7888 8.74367C52.9564 8.26026 51.9227 7.78715 50.7203 7.29869C48.3334 6.329 44.999 5.18764 40.6785 3.7087L38.5568 2.9824C34.3453 1.54001 31.7344 0.645813 29 0.645813ZM20.4851 7.25001C25.1942 5.63809 27.0816 5.02081 29 5.02081C30.9184 5.02081 32.8058 5.63809 37.5149 7.25001L39.1856 7.8219C43.5973 9.33205 46.8147 10.4343 49.0737 11.352C50.2012 11.81 51.0182 12.1939 51.5917 12.5269C51.8748 12.6914 52.0699 12.827 52.2001 12.9329C52.3105 13.0227 52.3526 13.0735 52.3587 13.081C52.3643 13.0901 52.4006 13.1506 52.4517 13.294C52.51 13.4577 52.5746 13.6923 52.6375 14.0189C52.7649 14.6799 52.8614 15.5879 52.9281 16.8127C53.0617 19.2661 53.0625 22.691 53.0625 27.3819V31.9748C53.0625 47.0688 41.7753 54.4976 34.2535 57.7833C33.1701 58.2566 32.5444 58.5245 31.8478 58.7028C31.1826 58.8731 30.3708 58.9791 29 58.9791C27.6292 58.9791 26.8174 58.8731 26.1522 58.7028C25.4556 58.5245 24.8299 58.2566 23.7465 57.7833C16.2247 54.4976 4.9375 47.0688 4.9375 31.9748V27.3819C4.9375 22.691 4.9383 19.2661 5.0719 16.8127C5.13859 15.5879 5.23512 14.6799 5.3625 14.0189C5.42544 13.6923 5.49005 13.4577 5.54834 13.294C5.59938 13.1507 5.63563 13.0901 5.64126 13.081C5.6473 13.0736 5.68941 13.0227 5.79987 12.9329C5.93015 12.827 6.12523 12.6914 6.40834 12.5269C6.9818 12.1939 7.79876 11.81 8.92631 11.352C11.1853 10.4343 14.4027 9.33205 18.8144 7.8219L20.4851 7.25001Z" fill="#00A9F2"/>
<path d="M37.9234 27.6236C38.728 26.7224 38.6498 25.3395 37.7486 24.5349C36.8474 23.7303 35.4646 23.8086 34.6599 24.7097L25.875 34.5489L23.3401 31.7097C22.5354 30.8086 21.1526 30.7303 20.2514 31.5349C19.3502 32.3395 19.272 33.7224 20.0766 34.6236L24.2433 39.2902C24.6583 39.755 25.2519 40.0208 25.875 40.0208C26.4981 40.0208 27.0917 39.755 27.5067 39.2902L37.9234 27.6236Z" stroke="white"/>
<path fill-rule="evenodd" clip-rule="evenodd" d="M29 0.645813C26.2656 0.645813 23.6547 1.54001 19.4432 2.9824L17.3215 3.70871C13.001 5.18764 9.66659 6.32901 7.27967 7.29869C6.07729 7.78715 5.04357 8.26026 4.2112 8.74367C3.41017 9.20886 2.60656 9.7891 2.06059 10.567C1.52093 11.3359 1.24189 12.2811 1.06654 13.191C0.884243 14.137 0.77432 15.2718 0.703372 16.5748C0.5625 19.1619 0.5625 22.7061 0.5625 27.3031V31.9748C0.5625 49.7695 14.0026 58.3011 21.9951 61.7924L22.0742 61.827C23.0652 62.26 23.9968 62.6671 25.0672 62.9411C26.1973 63.2304 27.398 63.3541 29 63.3541C30.602 63.3541 31.8027 63.2304 32.9328 62.9411C34.0032 62.6671 34.9347 62.2601 35.9257 61.827L36.0049 61.7925C43.9974 58.3011 57.4375 49.7695 57.4375 31.9748V27.3036C57.4375 22.7063 57.4375 19.162 57.2966 16.5748C57.2257 15.2718 57.1158 14.137 56.9335 13.191C56.7581 12.2811 56.4791 11.3359 55.9394 10.567C55.3934 9.7891 54.5898 9.20886 53.7888 8.74367C52.9564 8.26026 51.9227 7.78715 50.7203 7.29869C48.3334 6.329 44.999 5.18764 40.6785 3.7087L38.5568 2.9824C34.3453 1.54001 31.7344 0.645813 29 0.645813ZM20.4851 7.25001C25.1942 5.63809 27.0816 5.02081 29 5.02081C30.9184 5.02081 32.8058 5.63809 37.5149 7.25001L39.1856 7.8219C43.5973 9.33205 46.8147 10.4343 49.0737 11.352C50.2012 11.81 51.0182 12.1939 51.5917 12.5269C51.8748 12.6914 52.0699 12.827 52.2001 12.9329C52.3105 13.0227 52.3526 13.0735 52.3587 13.081C52.3643 13.0901 52.4006 13.1506 52.4517 13.294C52.51 13.4577 52.5746 13.6923 52.6375 14.0189C52.7649 14.6799 52.8614 15.5879 52.9281 16.8127C53.0617 19.2661 53.0625 22.691 53.0625 27.3819V31.9748C53.0625 47.0688 41.7753 54.4976 34.2535 57.7833C33.1701 58.2566 32.5444 58.5245 31.8478 58.7028C31.1826 58.8731 30.3708 58.9791 29 58.9791C27.6292 58.9791 26.8174 58.8731 26.1522 58.7028C25.4556 58.5245 24.8299 58.2566 23.7465 57.7833C16.2247 54.4976 4.9375 47.0688 4.9375 31.9748V27.3819C4.9375 22.691 4.9383 19.2661 5.0719 16.8127C5.13859 15.5879 5.23512 14.6799 5.3625 14.0189C5.42544 13.6923 5.49005 13.4577 5.54834 13.294C5.59938 13.1507 5.63563 13.0901 5.64126 13.081C5.6473 13.0736 5.68941 13.0227 5.79987 12.9329C5.93015 12.827 6.12523 12.6914 6.40834 12.5269C6.9818 12.1939 7.79876 11.81 8.92631 11.352C11.1853 10.4343 14.4027 9.33205 18.8144 7.8219L20.4851 7.25001Z" stroke="white"/>
</svg>
