<svg width="64" height="64" viewBox="0 0 64 64" fill="none" xmlns="http://www.w3.org/2000/svg">
<path fill-rule="evenodd" clip-rule="evenodd" d="M33.0403 16.8092C34.1194 16.1582 35.9981 15.2197 37.7999 16.3472C39.6446 17.5015 39.5475 19.6351 39.3889 20.8692C39.2092 22.2665 38.7131 24.1175 38.1308 26.2906L37.9698 26.8914C37.8558 27.3166 37.7662 27.6519 37.6964 27.9419C37.6611 28.0892 37.6343 28.211 37.6143 28.3126C37.9384 28.4322 38.4135 28.5677 39.179 28.7728L39.3257 28.8121C40.762 29.1968 42.0587 29.544 43.0167 29.9499C43.9676 30.3528 45.2619 31.0868 45.6807 32.636L45.6869 32.6585L45.6934 32.6834L45.6992 32.7066L45.7048 32.7298L45.7102 32.7531L45.7153 32.7766L45.7206 32.8018L45.7252 32.8252C46.0462 34.4192 45.1908 35.6506 44.4863 36.4256C43.7596 37.225 42.6812 38.0922 41.4928 39.0386L35.4861 43.8219C33.697 45.2467 32.1815 46.4536 30.9596 47.1907C29.8804 47.8417 28.0017 48.7803 26.1999 47.6527C24.3553 46.4983 24.4524 44.3648 24.611 43.1306C24.7907 41.7333 25.2868 39.8823 25.8692 37.7092L26.0302 37.1086C26.1441 36.6834 26.2338 36.3481 26.3035 36.0581C26.3351 35.9265 26.3599 35.8152 26.3791 35.7205C26.0542 35.584 25.5671 35.4271 24.821 35.2272C23.3094 34.8222 21.9548 34.452 20.9516 34.0121C19.9942 33.5922 18.7202 32.8404 18.3064 31.3092L18.3002 31.2868L18.2937 31.262L18.2879 31.2389L18.2823 31.2158L18.277 31.1926L18.2719 31.1692L18.2666 31.1441L18.262 31.1208C17.9368 29.5066 18.8208 28.2821 19.5271 27.5258C20.2253 26.7781 21.2573 25.9565 22.3835 25.0599L28.5138 20.1781C30.3029 18.7533 31.8183 17.5463 33.0403 16.8092ZM31.1097 23.7036C32.8528 22.3155 34.0678 21.3527 34.9818 20.7557C34.8005 21.8009 34.4158 23.2513 33.8607 25.3228L33.7146 25.8679C33.5165 26.6067 33.3141 27.3611 33.2323 28.0141C33.1378 28.7695 33.158 29.6958 33.6949 30.606L33.7068 30.6261L33.719 30.646C34.2596 31.5192 35.0512 31.9838 35.7456 32.2774C36.4028 32.5552 37.2166 32.7763 38.0466 32.9987C39.372 33.3538 40.2752 33.5994 40.9111 33.8247C40.4495 34.2621 39.7648 34.8219 38.7674 35.6161L32.8902 40.2963C31.1471 41.6844 29.9321 42.6472 29.0181 43.2442C29.1994 42.199 29.5841 40.7486 30.1392 38.6771L30.2853 38.1321C30.4835 37.3934 30.6858 36.639 30.7676 35.9859C30.8622 35.2305 30.842 34.3042 30.3051 33.394L30.297 33.3985C29.7804 32.6049 29.0383 32.1307 28.359 31.8134C27.6683 31.4907 26.8387 31.2385 25.9533 31.0013C24.6282 30.6462 23.7197 30.3905 23.0858 30.1564C23.5527 29.726 24.2367 29.1769 25.2325 28.3839L31.1097 23.7036Z" fill="#00A9F2"/>
<path fill-rule="evenodd" clip-rule="evenodd" d="M32 0.645813C14.6836 0.645813 0.645813 14.6836 0.645813 32C0.645813 49.3164 14.6836 63.3541 32 63.3541C49.3164 63.3541 63.3541 49.3164 63.3541 32C63.3541 14.6836 49.3164 0.645813 32 0.645813ZM5.02081 32C5.02081 17.0998 17.0998 5.02081 32 5.02081C46.9002 5.02081 58.9791 17.0998 58.9791 32C58.9791 46.9002 46.9002 58.9791 32 58.9791C17.0998 58.9791 5.02081 46.9002 5.02081 32Z" fill="#00A9F2"/>
<path fill-rule="evenodd" clip-rule="evenodd" d="M33.0403 16.8092C34.1194 16.1582 35.9981 15.2197 37.7999 16.3472C39.6446 17.5015 39.5475 19.6351 39.3889 20.8692C39.2092 22.2665 38.7131 24.1175 38.1308 26.2906L37.9698 26.8914C37.8558 27.3166 37.7662 27.6519 37.6964 27.9419C37.6611 28.0892 37.6343 28.211 37.6143 28.3126C37.9384 28.4322 38.4135 28.5677 39.179 28.7728L39.3257 28.8121C40.762 29.1968 42.0587 29.544 43.0167 29.9499C43.9676 30.3528 45.2619 31.0868 45.6807 32.636L45.6869 32.6585L45.6934 32.6834L45.6992 32.7066L45.7048 32.7298L45.7102 32.7531L45.7153 32.7766L45.7206 32.8018L45.7252 32.8252C46.0462 34.4192 45.1908 35.6506 44.4863 36.4256C43.7596 37.225 42.6812 38.0922 41.4928 39.0386L35.4861 43.8219C33.697 45.2467 32.1815 46.4536 30.9596 47.1907C29.8804 47.8417 28.0017 48.7803 26.1999 47.6527C24.3553 46.4983 24.4524 44.3648 24.611 43.1306C24.7907 41.7333 25.2868 39.8823 25.8692 37.7092L26.0302 37.1086C26.1441 36.6834 26.2338 36.3481 26.3035 36.0581C26.3351 35.9265 26.3599 35.8152 26.3791 35.7205C26.0542 35.584 25.5671 35.4271 24.821 35.2272C23.3094 34.8222 21.9548 34.452 20.9516 34.0121C19.9942 33.5922 18.7202 32.8404 18.3064 31.3092L18.3002 31.2868L18.2937 31.262L18.2879 31.2389L18.2823 31.2158L18.277 31.1926L18.2719 31.1692L18.2666 31.1441L18.262 31.1208C17.9368 29.5066 18.8208 28.2821 19.5271 27.5258C20.2253 26.7781 21.2573 25.9565 22.3835 25.0599L28.5138 20.1781C30.3029 18.7533 31.8183 17.5463 33.0403 16.8092ZM31.1097 23.7036C32.8528 22.3155 34.0678 21.3527 34.9818 20.7557C34.8005 21.8009 34.4158 23.2513 33.8607 25.3228L33.7146 25.8679C33.5165 26.6067 33.3141 27.3611 33.2323 28.0141C33.1378 28.7695 33.158 29.6958 33.6949 30.606L33.7068 30.6261L33.719 30.646C34.2596 31.5192 35.0512 31.9838 35.7456 32.2774C36.4028 32.5552 37.2166 32.7763 38.0466 32.9987C39.372 33.3538 40.2752 33.5994 40.9111 33.8247C40.4495 34.2621 39.7648 34.8219 38.7674 35.6161L32.8902 40.2963C31.1471 41.6844 29.9321 42.6472 29.0181 43.2442C29.1994 42.199 29.5841 40.7486 30.1392 38.6771L30.2853 38.1321C30.4835 37.3934 30.6858 36.639 30.7676 35.9859C30.8622 35.2305 30.842 34.3042 30.3051 33.394L30.297 33.3985C29.7804 32.6049 29.0383 32.1307 28.359 31.8134C27.6683 31.4907 26.8387 31.2385 25.9533 31.0013C24.6282 30.6462 23.7197 30.3905 23.0858 30.1564C23.5527 29.726 24.2367 29.1769 25.2325 28.3839L31.1097 23.7036Z" stroke="white"/>
<path fill-rule="evenodd" clip-rule="evenodd" d="M32 0.645813C14.6836 0.645813 0.645813 14.6836 0.645813 32C0.645813 49.3164 14.6836 63.3541 32 63.3541C49.3164 63.3541 63.3541 49.3164 63.3541 32C63.3541 14.6836 49.3164 0.645813 32 0.645813ZM5.02081 32C5.02081 17.0998 17.0998 5.02081 32 5.02081C46.9002 5.02081 58.9791 17.0998 58.9791 32C58.9791 46.9002 46.9002 58.9791 32 58.9791C17.0998 58.9791 5.02081 46.9002 5.02081 32Z" stroke="white"/>
</svg>
