<svg width="64" height="66" viewBox="0 0 64 66" fill="none" xmlns="http://www.w3.org/2000/svg">
<path fill-rule="evenodd" clip-rule="evenodd" d="M20.1733 0.645815H43.8267C47.8155 0.645754 51.0306 0.645706 53.5593 0.985674C56.1846 1.33864 58.3951 2.09374 60.1507 3.84933C61.9062 5.60493 62.6613 7.81539 63.0143 10.4407C63.3543 12.9694 63.3542 16.1845 63.3542 20.1733V32.16C63.3542 36.1488 63.3543 39.3639 63.0143 41.8926C62.6613 44.5179 61.9062 46.7284 60.1507 48.484C58.6984 49.9362 56.9283 50.7091 54.8553 51.1312C52.8423 51.5412 50.4139 51.6444 47.5389 51.6749L47.5224 51.6751L46.8679 51.677C46.5858 52.5643 46.1268 53.4082 45.4909 54.1544C45.1086 54.603 44.8776 55.1608 44.8307 55.7483C44.5504 59.261 41.761 62.0504 38.2484 62.3307C37.6608 62.3776 37.103 62.6086 36.6544 62.9909C33.9724 65.2766 30.0276 65.2766 27.3456 62.9909C26.897 62.6086 26.3392 62.3776 25.7516 62.3307C22.239 62.0504 19.4496 59.261 19.1693 55.7483C19.1224 55.1608 18.8914 54.603 18.5091 54.1544C17.8741 53.4093 17.4155 52.5666 17.1333 51.6807C14.099 51.6602 11.5591 51.578 9.47269 51.1947C7.26187 50.7886 5.3804 50.015 3.84935 48.484C2.09376 46.7284 1.33865 44.5179 0.98569 41.8926C0.645721 39.3639 0.64577 36.1488 0.64583 32.16V20.1733C0.64577 16.1845 0.645721 12.9694 0.98569 10.4407C1.33865 7.8154 2.09376 5.60493 3.84935 3.84934C5.60494 2.09375 7.81541 1.33864 10.4407 0.985675C12.9694 0.645706 16.1845 0.645754 20.1733 0.645815ZM17.1377 47.3056C17.4202 46.4247 17.8773 45.5869 18.5091 44.8456C18.8914 44.3969 19.1224 43.8392 19.1693 43.2516C19.4496 39.7389 22.239 36.9496 25.7516 36.6693C26.3392 36.6224 26.897 36.3913 27.3456 36.0091C30.0276 33.7234 33.9724 33.7234 36.6544 36.0091C37.103 36.3913 37.6608 36.6224 38.2484 36.6693C41.761 36.9496 44.5504 39.7389 44.8307 43.2516C44.8776 43.8392 45.1086 44.397 45.4909 44.8456C46.1218 45.5859 46.5786 46.4224 46.8612 47.302L47.5004 47.3001C50.3742 47.2694 52.4232 47.1617 53.9823 46.8442C55.483 46.5386 56.3805 46.0669 57.0571 45.3904C57.8643 44.5831 58.3906 43.4498 58.6783 41.3096C58.9745 39.1065 58.9792 36.1866 58.9792 32V20.3333C58.9792 16.1467 58.9745 13.2268 58.6783 11.0237C58.3906 8.88349 57.8643 7.75015 57.0571 6.94293C56.2498 6.1357 55.1165 5.6094 52.9763 5.32166C50.7732 5.02546 47.8533 5.02082 43.6667 5.02082H20.3333C16.1467 5.02082 13.2268 5.02546 11.0237 5.32166C8.8835 5.6094 7.75017 6.1357 6.94294 6.94293C6.13572 7.75016 5.60942 8.88349 5.32168 11.0237C5.02548 13.2268 5.02083 16.1467 5.02083 20.3333V32C5.02083 36.1866 5.02548 39.1065 5.32168 41.3096C5.60942 43.4498 6.13572 44.5831 6.94294 45.3904C7.65302 46.1004 8.6099 46.588 10.2631 46.8917C11.9261 47.1972 14.1012 47.2844 17.1377 47.3056ZM21.0625 14.5C21.0625 13.2919 22.0419 12.3125 23.25 12.3125H40.75C41.9581 12.3125 42.9375 13.2919 42.9375 14.5C42.9375 15.7081 41.9581 16.6875 40.75 16.6875H23.25C22.0419 16.6875 21.0625 15.7081 21.0625 14.5ZM15.2292 24.7083C15.2292 23.5002 16.2085 22.5208 17.4167 22.5208H46.5833C47.7915 22.5208 48.7708 23.5002 48.7708 24.7083C48.7708 25.9164 47.7915 26.8958 46.5833 26.8958H17.4167C16.2085 26.8958 15.2292 25.9164 15.2292 24.7083ZM33.8167 39.3389C32.7699 38.4468 31.2301 38.4468 30.1833 39.3389C29.0339 40.3184 27.6049 40.9103 26.0997 41.0304C24.7286 41.1398 23.6398 42.2286 23.5304 43.5997C23.4103 45.1049 22.8184 46.5339 21.8389 47.6833C20.9468 48.7301 20.9468 50.2698 21.8389 51.3167C22.8184 52.466 23.4103 53.895 23.5304 55.4003C23.6398 56.7714 24.7286 57.8601 26.0997 57.9696C27.6049 58.0897 29.034 58.6816 30.1833 59.661C31.2301 60.5532 32.7699 60.5532 33.8167 59.661C34.966 58.6816 36.3951 58.0897 37.9003 57.9696C39.2714 57.8601 40.3602 56.7714 40.4696 55.4003C40.5897 53.8951 41.1816 52.466 42.1611 51.3167C43.0532 50.2698 43.0532 48.7301 42.1611 47.6833C41.1816 46.5339 40.5897 45.1049 40.4696 43.5997C40.3602 42.2286 39.2714 41.1398 37.9003 41.0304C36.3951 40.9103 34.9661 40.3184 33.8167 39.3389Z" fill="#00A9F2"/>
<path d="M3.84935 48.484C5.3804 50.015 7.26186 50.7886 9.47269 51.1947C11.5591 51.578 14.099 51.6602 17.1333 51.6807C17.4155 52.5666 17.8741 53.4093 18.5091 54.1544C18.8914 54.603 19.1224 55.1608 19.1693 55.7483C19.4496 59.261 22.239 62.0504 25.7516 62.3307C26.3392 62.3776 26.897 62.6086 27.3456 62.9909C30.0276 65.2765 33.9724 65.2765 36.6544 62.9909C37.103 62.6086 37.6608 62.3776 38.2484 62.3307C41.761 62.0504 44.5504 59.261 44.8307 55.7483C44.8776 55.1608 45.1086 54.603 45.4909 54.1544C46.1268 53.4082 46.5858 52.5643 46.8679 51.677L47.5224 51.6751L47.5389 51.6749C50.4139 51.6444 52.8423 51.5412 54.8553 51.1312C56.9283 50.7091 58.6984 49.9362 60.1507 48.484C61.9062 46.7284 62.6613 44.5179 63.0143 41.8926C63.3543 39.3639 63.3542 36.1488 63.3542 32.16V20.1733C63.3542 16.1845 63.3543 12.9694 63.0143 10.4407C62.6613 7.81539 61.9062 5.60493 60.1507 3.84933C58.3951 2.09374 56.1846 1.33864 53.5593 0.985674C51.0306 0.645706 47.8155 0.645754 43.8267 0.645815H20.1733C16.1845 0.645754 12.9694 0.645706 10.4407 0.985675C7.81541 1.33864 5.60494 2.09375 3.84935 3.84934C2.09376 5.60493 1.33865 7.8154 0.98569 10.4407C0.645721 12.9694 0.64577 16.1845 0.64583 20.1733V32.16C0.64577 36.1488 0.645721 39.3639 0.98569 41.8926C1.33865 44.5179 2.09376 46.7284 3.84935 48.484ZM3.84935 48.484L5.39615 46.9372M6.94294 45.3904C6.13572 44.5831 5.60942 43.4498 5.32168 41.3096C5.02548 39.1065 5.02083 36.1866 5.02083 32V20.3333C5.02083 16.1467 5.02548 13.2268 5.32168 11.0237C5.60942 8.88349 6.13572 7.75016 6.94294 6.94293C7.75017 6.1357 8.8835 5.6094 11.0237 5.32166C13.2268 5.02546 16.1467 5.02082 20.3333 5.02082H43.6667C47.8533 5.02082 50.7732 5.02546 52.9763 5.32166C55.1165 5.6094 56.2498 6.1357 57.0571 6.94293C57.8643 7.75015 58.3906 8.88349 58.6783 11.0237C58.9745 13.2268 58.9792 16.1467 58.9792 20.3333V32C58.9792 36.1866 58.9745 39.1065 58.6783 41.3096C58.3906 43.4498 57.8643 44.5831 57.0571 45.3904C56.3805 46.0669 55.483 46.5386 53.9823 46.8442C52.4232 47.1617 50.3742 47.2694 47.5004 47.3001L46.8612 47.302C46.5786 46.4224 46.1218 45.5859 45.4909 44.8456C45.1086 44.397 44.8776 43.8392 44.8307 43.2516C44.5504 39.7389 41.761 36.9496 38.2484 36.6693C37.6608 36.6224 37.103 36.3914 36.6544 36.0091C33.9724 33.7234 30.0276 33.7234 27.3456 36.0091C26.897 36.3914 26.3392 36.6224 25.7516 36.6693C22.239 36.9496 19.4496 39.7389 19.1693 43.2516C19.1224 43.8392 18.8914 44.3969 18.5091 44.8456C17.8773 45.5869 17.4202 46.4247 17.1377 47.3056C14.1012 47.2844 11.9261 47.1972 10.2631 46.8917C8.6099 46.588 7.65302 46.1004 6.94294 45.3904ZM6.94294 45.3904L5.43388 46.8994M23.25 12.3125C22.0419 12.3125 21.0625 13.2919 21.0625 14.5C21.0625 15.7081 22.0419 16.6875 23.25 16.6875H40.75C41.9581 16.6875 42.9375 15.7081 42.9375 14.5C42.9375 13.2919 41.9581 12.3125 40.75 12.3125H23.25ZM17.4167 22.5208C16.2085 22.5208 15.2292 23.5002 15.2292 24.7083C15.2292 25.9164 16.2085 26.8958 17.4167 26.8958H46.5833C47.7915 26.8958 48.7708 25.9164 48.7708 24.7083C48.7708 23.5002 47.7915 22.5208 46.5833 22.5208H17.4167ZM30.1833 39.3389C31.2301 38.4468 32.7699 38.4468 33.8167 39.3389C34.9661 40.3184 36.3951 40.9103 37.9003 41.0304C39.2714 41.1398 40.3602 42.2286 40.4696 43.5997C40.5897 45.1049 41.1816 46.5339 42.1611 47.6833C43.0532 48.7301 43.0532 50.2698 42.1611 51.3167C41.1816 52.466 40.5897 53.8951 40.4696 55.4003C40.3602 56.7714 39.2714 57.8601 37.9003 57.9696C36.3951 58.0897 34.966 58.6816 33.8167 59.661C32.7699 60.5532 31.2301 60.5532 30.1833 59.661C29.034 58.6816 27.6049 58.0897 26.0997 57.9696C24.7286 57.8601 23.6398 56.7714 23.5304 55.4003C23.4103 53.895 22.8184 52.466 21.8389 51.3167C20.9468 50.2698 20.9468 48.7301 21.8389 47.6833C22.8184 46.5339 23.4103 45.1049 23.5304 43.5997C23.6398 42.2286 24.7286 41.1398 26.0997 41.0304C27.6049 40.9103 29.0339 40.3184 30.1833 39.3389Z" stroke="white"/>
</svg>
