<svg width="64" height="64" viewBox="0 0 64 64" fill="none" xmlns="http://www.w3.org/2000/svg">
<path fill-rule="evenodd" clip-rule="evenodd" d="M21.0625 23.25C21.0625 17.2094 25.9594 12.3125 32 12.3125C38.0406 12.3125 42.9375 17.2094 42.9375 23.25C42.9375 29.2906 38.0406 34.1875 32 34.1875C25.9594 34.1875 21.0625 29.2906 21.0625 23.25ZM32 16.6875C28.3756 16.6875 25.4375 19.6256 25.4375 23.25C25.4375 26.8743 28.3756 29.8125 32 29.8125C35.6244 29.8125 38.5625 26.8743 38.5625 23.25C38.5625 19.6256 35.6244 16.6875 32 16.6875Z" fill="#00A9F2"/>
<path fill-rule="evenodd" clip-rule="evenodd" d="M0.645836 32C0.645836 14.6836 14.6836 0.645813 32 0.645813C49.3164 0.645813 63.3542 14.6836 63.3542 32C63.3542 49.3164 49.3164 63.3541 32 63.3541C14.6836 63.3541 0.645836 49.3164 0.645836 32ZM32 5.02081C17.0998 5.02081 5.02084 17.0998 5.02084 32C5.02084 39.4246 8.01995 46.1487 12.8728 51.027C13.399 48.1886 14.4327 45.5126 16.5077 43.3607C19.6115 40.1419 24.5746 38.5625 31.9999 38.5625C39.4251 38.5625 44.3882 40.1419 47.492 43.3607C49.567 45.5126 50.6008 48.1888 51.1269 51.0272C55.9799 46.1489 58.9792 39.4247 58.9792 32C58.9792 17.0998 46.9002 5.02081 32 5.02081ZM47.1482 54.3282C46.8511 50.7934 46.0835 48.2029 44.3426 46.3975C42.4483 44.433 38.9385 42.9375 31.9999 42.9375C25.0612 42.9375 21.5514 44.433 19.6571 46.3975C17.9162 48.2029 17.1487 50.7933 16.8515 54.328C21.17 57.2636 26.3846 58.9791 32 58.9791C37.6152 58.9791 42.8298 57.2637 47.1482 54.3282Z" fill="#00A9F2"/>
<path fill-rule="evenodd" clip-rule="evenodd" d="M21.0625 23.25C21.0625 17.2094 25.9594 12.3125 32 12.3125C38.0406 12.3125 42.9375 17.2094 42.9375 23.25C42.9375 29.2906 38.0406 34.1875 32 34.1875C25.9594 34.1875 21.0625 29.2906 21.0625 23.25ZM32 16.6875C28.3756 16.6875 25.4375 19.6256 25.4375 23.25C25.4375 26.8743 28.3756 29.8125 32 29.8125C35.6244 29.8125 38.5625 26.8743 38.5625 23.25C38.5625 19.6256 35.6244 16.6875 32 16.6875Z" stroke="white"/>
<path fill-rule="evenodd" clip-rule="evenodd" d="M0.645836 32C0.645836 14.6836 14.6836 0.645813 32 0.645813C49.3164 0.645813 63.3542 14.6836 63.3542 32C63.3542 49.3164 49.3164 63.3541 32 63.3541C14.6836 63.3541 0.645836 49.3164 0.645836 32ZM32 5.02081C17.0998 5.02081 5.02084 17.0998 5.02084 32C5.02084 39.4246 8.01995 46.1487 12.8728 51.027C13.399 48.1886 14.4327 45.5126 16.5077 43.3607C19.6115 40.1419 24.5746 38.5625 31.9999 38.5625C39.4251 38.5625 44.3882 40.1419 47.492 43.3607C49.567 45.5126 50.6008 48.1888 51.1269 51.0272C55.9799 46.1489 58.9792 39.4247 58.9792 32C58.9792 17.0998 46.9002 5.02081 32 5.02081ZM47.1482 54.3282C46.8511 50.7934 46.0835 48.2029 44.3426 46.3975C42.4483 44.433 38.9385 42.9375 31.9999 42.9375C25.0612 42.9375 21.5514 44.433 19.6571 46.3975C17.9162 48.2029 17.1487 50.7933 16.8515 54.328C21.17 57.2636 26.3846 58.9791 32 58.9791C37.6152 58.9791 42.8298 57.2637 47.1482 54.3282Z" stroke="white"/>
</svg>
