<svg width="141" height="56" viewBox="0 0 141 56" fill="none" xmlns="http://www.w3.org/2000/svg">
<path d="M1.44621 0.213067C1.5192 0.139866 1.67563 0.0666651 1.79034 0.0352933C1.90506 0.00392148 2.60377 -0.00653579 3.35462 0.00392148C4.30361 0.024836 4.95017 0.108494 5.49245 0.254896C5.92002 0.369926 6.67087 0.620901 7.16101 0.809131C7.65114 1.00782 8.42285 1.38428 9.71598 2.15812L10.6545 1.78166C11.176 1.57251 12.1145 1.26925 12.7402 1.10194C13.3764 0.934619 14.3984 0.725473 15.0345 0.641815C15.7019 0.5477 16.8908 0.474499 17.8502 0.474499C18.7679 0.474499 19.8733 0.526785 20.3009 0.589529C20.7284 0.652272 21.4376 0.77776 21.8652 0.861418C22.2927 0.955533 23.1166 1.19605 23.6901 1.39474C24.2637 1.59343 25.1084 1.94897 25.5673 2.18949C26.0261 2.43001 26.777 2.91104 27.2254 3.25613C27.6842 3.60122 28.2995 4.18683 28.6019 4.56329C28.8939 4.93975 29.2485 5.45216 29.3736 5.71359C29.5092 5.97502 29.6969 6.4456 29.8116 6.75932C29.9159 7.07304 29.9994 7.49133 29.9994 7.6691C29.9994 8.00373 29.9889 8.01419 29.5614 8.01419C29.3111 8.01419 28.6854 7.87825 28.1744 7.71093C27.6634 7.54361 26.0678 6.99984 24.6287 6.49789C23.2 6.0064 21.3229 5.41033 20.4573 5.19073C19.6022 4.97113 18.4446 4.70969 17.9023 4.61558C17.3601 4.52146 16.1399 4.41689 15.1909 4.38552C13.9395 4.35415 13.1887 4.37506 12.4274 4.50055C11.8538 4.58421 10.9674 4.78289 10.446 4.9293C9.92455 5.0757 8.98599 5.45216 8.36028 5.75542C7.73457 6.06914 6.91072 6.53972 6.5353 6.82206C6.15987 7.09395 5.58631 7.55407 5.24217 7.84688C4.90846 8.13968 4.31403 8.75666 3.92818 9.21678C3.54233 9.6769 2.96876 10.4507 2.64548 10.9422C2.33263 11.4337 1.91549 12.1657 1.70692 12.5631C1.50878 12.9605 1.17507 13.7552 0.966496 14.3095C0.757926 14.8742 0.507643 15.6689 0.403358 16.0663C0.299074 16.4846 0.173932 16.7983 0.0905042 16.7983C-0.003352 16.7983 -0.024209 16.5996 0.0279334 15.9931C0.0592188 15.5434 0.153075 14.7278 0.236503 14.184C0.319931 13.6402 0.476358 12.835 0.591071 12.4062C0.695355 11.9775 0.93521 11.2037 1.12292 10.6808C1.30021 10.1579 1.64435 9.32135 1.87377 8.79849C2.1032 8.27562 2.55162 7.40767 2.86448 6.86389C3.17733 6.32011 3.50061 5.68222 3.58404 5.45216C3.66747 5.2221 3.74047 4.67832 3.74047 4.24957C3.74047 3.779 3.66747 3.27705 3.56318 2.9947C3.46933 2.73327 3.2399 2.31498 3.06262 2.07446C2.87491 1.82349 2.41605 1.4052 2.0302 1.15422C1.61306 0.882332 1.32106 0.620901 1.32106 0.516328C1.31064 0.411755 1.37321 0.275811 1.44621 0.213067Z" fill="#6DC5C7"/>
<path d="M16.4423 25.4465C16.7552 25.2896 17.7146 24.8818 18.5802 24.5471C19.4353 24.202 20.2383 23.9197 20.353 23.9197C20.4677 23.9092 20.8119 24.0034 21.1039 24.1184C21.4063 24.2334 22.0633 24.4112 22.5639 24.5053C23.3564 24.6622 24.2637 24.6831 29.0087 24.704C32.4605 24.7145 34.8903 24.7667 35.4743 24.8399C35.9853 24.9027 36.7883 25.0386 37.2471 25.1223C37.706 25.2164 38.4777 25.436 38.9678 25.6033C39.458 25.7706 40.2088 26.1053 40.6364 26.3353C41.064 26.5654 41.721 26.9837 42.0964 27.2556C42.4718 27.5379 43.0871 28.0817 43.4625 28.4791C43.8379 28.866 44.3489 29.4934 44.5992 29.8699C44.8495 30.2464 45.2562 30.9679 45.5065 31.4908C45.7463 32.0032 46.0696 32.9025 46.2156 33.4776C46.3616 34.0528 46.5285 35.0358 46.6015 35.6737C46.6849 36.5312 46.6849 37.1377 46.5911 38.0788C46.5285 38.769 46.3512 39.8148 46.2156 40.4004C46.0696 40.9964 45.7881 41.9167 45.5795 42.4395C45.3813 42.9729 45.0059 43.8094 44.7556 44.3009C44.4949 44.7924 43.9944 45.6185 43.6398 46.1519C43.2748 46.6747 42.6595 47.4904 42.2528 47.961C41.8461 48.4315 41.1682 49.1322 40.7407 49.5191C40.3131 49.906 39.604 50.5021 39.1764 50.8263C38.7488 51.1609 37.998 51.6838 37.5079 51.987C37.0177 52.2903 36.1313 52.7818 35.5264 53.085C34.9216 53.3883 33.9205 53.838 33.2843 54.0889C32.6482 54.3399 31.5219 54.7059 30.7815 54.9151C30.0411 55.1242 28.7479 55.4065 27.9137 55.5529C27.0794 55.6889 25.5568 55.8667 24.5244 55.9294C23.0853 56.0235 22.2093 56.0235 20.7702 55.9294C19.7377 55.8562 18.4238 55.7307 17.8502 55.6471C17.2766 55.5634 16.2963 55.3961 15.6602 55.2706C15.0241 55.1451 13.7831 54.8314 12.8967 54.5804C12.0102 54.3294 10.6754 53.8798 9.92455 53.587C9.1737 53.2942 8.01614 52.7818 7.33829 52.4471C6.67087 52.1021 5.71145 51.5792 5.21088 51.2655C4.69989 50.9517 3.87604 50.3766 3.35462 49.9792C2.83319 49.5714 2.13448 48.944 1.79034 48.5779C1.44621 48.2119 1.01864 47.6995 0.841354 47.4381C0.66407 47.1767 0.486786 46.8839 0.455501 46.7793C0.413787 46.6747 0.445072 46.5597 0.538928 46.4969C0.643213 46.4237 0.966496 46.4447 1.55049 46.5492C2.0302 46.6329 2.82276 46.7061 3.32333 46.7061C4.01161 46.7061 4.38703 46.6538 4.83546 46.476C5.22131 46.3296 5.64888 46.0577 6.00345 45.7231C6.44144 45.2944 6.6813 44.9284 7.16101 43.9349C7.49472 43.2447 8.22471 41.6448 8.76699 40.3794C9.3197 39.1141 9.8307 38.0475 9.9037 38.0056C9.96627 37.9638 10.1331 37.922 10.2583 37.922C10.3938 37.922 10.5711 37.9952 10.6545 38.0788C10.7901 38.2148 10.811 39.0723 10.811 44.5101C10.811 50.4184 10.8214 50.7844 10.9883 50.7844C11.0925 50.7844 12.2084 50.8576 13.4702 50.9622C14.9406 51.0668 17.1306 51.1295 19.5709 51.14C22.8559 51.1504 23.5233 51.1191 24.4201 50.9517C24.9937 50.8472 25.8384 50.6485 26.2973 50.5021C26.7561 50.3557 27.434 50.0942 27.8094 49.9269C28.1848 49.7596 28.8835 49.3518 29.3736 49.0381C29.8638 48.7243 30.6563 48.0551 31.1465 47.5531C31.6366 47.0616 32.2728 46.2983 32.5543 45.8695C32.8359 45.4408 33.2113 44.761 33.399 44.3532C33.5763 43.9454 33.8579 43.2343 34.0039 42.7532C34.1499 42.2827 34.348 41.4565 34.4315 40.9232C34.5149 40.4004 34.5879 39.4487 34.5879 38.8109C34.5879 38.173 34.5149 37.2214 34.4315 36.688C34.348 36.1652 34.1499 35.339 34.0039 34.858C33.8475 34.3874 33.545 33.6241 33.3052 33.1639C33.0758 32.7038 32.7212 32.0659 32.5022 31.7522C32.2936 31.4385 31.8556 30.8947 31.5428 30.5496C31.2195 30.2045 30.7711 29.7758 30.5312 29.6085C30.3018 29.4411 30.1036 29.232 30.1036 29.1588C30.1036 29.0751 30.2079 29.0542 30.4374 29.096C30.6251 29.1274 31.2299 29.2738 31.7722 29.4202C32.3145 29.5562 33.1175 29.8176 33.545 29.9849C33.9726 30.1627 34.6296 30.466 35.005 30.6751C35.3804 30.8738 35.9853 31.2712 36.3607 31.5431C36.7361 31.8254 37.3201 32.3483 37.6747 32.7143C38.0293 33.0698 38.5507 33.7495 38.8531 34.2097C39.1556 34.6698 39.531 35.4018 39.6978 35.8305C39.8543 36.2593 40.0628 36.9808 40.1567 37.42C40.2505 37.8697 40.3235 38.7377 40.3235 39.3546C40.3235 40.0448 40.2401 40.85 40.1254 41.4252C40.0211 41.9376 39.7813 42.7428 39.604 43.2029C39.4267 43.663 39.0721 44.416 38.8114 44.8761C38.5507 45.3362 38.0814 46.0368 37.779 46.4447C37.4661 46.8525 36.8509 47.5322 36.4024 47.961C35.9436 48.3897 35.297 48.9649 34.9529 49.2263C34.6087 49.4982 33.9726 49.9269 33.545 50.1884C33.1175 50.4498 32.2728 50.8995 31.6679 51.1923C31.0631 51.4851 29.9368 51.9243 29.1651 52.1857C28.3934 52.4367 27.2671 52.7504 26.6622 52.8759C26.0574 53.0014 25.0771 53.1687 24.4723 53.2523C23.8674 53.336 22.4804 53.4301 21.3959 53.472C19.8629 53.5347 19.5396 53.5661 19.988 53.6288C20.3009 53.6706 21.4063 53.7543 22.4387 53.817C23.7944 53.9007 24.7747 53.9007 25.9844 53.8275C26.9021 53.7648 28.1222 53.6393 28.6958 53.5556C29.2694 53.472 30.2809 53.2628 30.9379 53.0955C31.5949 52.9282 32.6065 52.6145 33.18 52.4053C33.7536 52.1962 34.7652 51.736 35.4222 51.4014C36.0792 51.0563 37.049 50.4707 37.56 50.1047C38.071 49.7387 38.8948 49.0694 39.3746 48.6198C39.8543 48.1701 40.5217 47.4799 40.845 47.0721C41.1787 46.6643 41.7105 45.9113 42.0547 45.3989C42.3884 44.8865 42.8577 44.029 43.0975 43.5166C43.3478 43.0042 43.6815 42.1467 43.8588 41.6343C44.0257 41.1219 44.2759 40.2017 44.4011 39.5952C44.5992 38.6749 44.6409 38.1625 44.6409 36.5103C44.6514 34.9417 44.6096 34.3351 44.4532 33.6345C44.3489 33.143 44.1508 32.4424 44.0257 32.0659C43.9005 31.6895 43.6189 31.0306 43.3999 30.6019C43.1914 30.1732 42.7638 29.4934 42.4614 29.0856C42.159 28.6778 41.7001 28.1758 41.429 27.9562C41.1682 27.7471 40.9284 27.5693 40.8971 27.5693C40.8658 27.5693 40.845 27.768 40.845 28.0085C40.845 28.2595 40.9284 28.7196 41.0327 29.0333C41.137 29.347 41.4081 29.8908 41.6271 30.2359C41.8461 30.581 42.1798 31.062 42.3675 31.3025C42.6282 31.6267 42.7117 31.8254 42.6699 32.0136C42.6387 32.16 42.5448 32.296 42.4614 32.3273C42.3779 32.3587 41.8982 32.3273 41.3872 32.2646C40.8867 32.2019 40.1775 32.0555 39.8021 31.93C39.4267 31.8045 38.801 31.5117 38.3943 31.2712C37.9876 31.0306 37.268 30.6019 36.7779 30.2986C36.2877 30.0058 35.4013 29.5666 34.7965 29.3261C34.1916 29.0961 32.9923 28.73 32.1372 28.5104C31.2821 28.2908 29.8221 27.9876 28.9044 27.8412C27.9867 27.6948 26.5267 27.5065 25.6715 27.4124C24.8164 27.3288 23.1687 27.2137 22.0216 27.151C20.8744 27.0883 19.0912 27.0464 18.0588 27.0569C16.8282 27.0673 16.0982 27.036 15.9418 26.9523C15.8166 26.8896 15.6811 26.7118 15.6498 26.5445C15.6081 26.3772 15.6394 26.1576 15.7228 26.0007C15.8062 25.8543 16.1295 25.6138 16.4423 25.4465Z" fill="#6DC5C7"/>
<path fill-rule="evenodd" clip-rule="evenodd" d="M133.345 12.5631C134.43 12.584 135.087 12.6572 135.692 12.8141C136.151 12.9396 136.881 13.201 137.308 13.4206C137.84 13.682 138.309 14.0167 138.789 14.4872C139.248 14.9474 139.585 15.404 139.801 15.8571C139.978 16.2336 140.207 16.9342 140.301 17.4257C140.447 18.1682 140.458 18.4506 140.364 19.0989C140.301 19.5276 140.134 20.1655 140.009 20.5106C139.874 20.8557 139.55 21.4204 138.8 22.3929L139.279 22.9158C139.54 23.2086 139.926 23.7733 140.145 24.1707C140.353 24.5785 140.635 25.2582 140.76 25.687C140.958 26.3144 141 26.7118 141 27.6739C141 28.4582 140.937 29.117 140.823 29.5562C140.718 29.9326 140.447 30.6333 140.207 31.1248C139.905 31.7313 139.55 32.2437 139.071 32.7456C138.622 33.2267 138.132 33.6136 137.663 33.8646C137.267 34.0737 136.526 34.3561 136.005 34.4711C135.462 34.607 134.503 34.7325 133.71 34.7743C132.96 34.8162 131.885 34.8162 131.312 34.7743C130.738 34.7325 129.967 34.628 129.591 34.5234C129.216 34.4293 128.569 34.1887 128.163 33.9901C127.672 33.76 127.151 33.4044 126.713 32.9862C126.338 32.6202 125.816 32.0241 125.576 31.6476C125.326 31.2712 125.024 30.7378 124.909 30.445C124.784 30.1627 124.721 29.8908 124.763 29.8594C124.815 29.8281 125.451 29.5457 126.202 29.2425C126.953 28.9392 127.61 28.6673 127.662 28.6464C127.714 28.6255 127.923 28.866 128.11 29.1797C128.288 29.5039 128.601 29.9431 128.799 30.1627C128.986 30.3718 129.372 30.6751 129.654 30.832C130.019 31.0411 130.426 31.1561 131.051 31.2293C131.541 31.2816 132.334 31.3339 132.824 31.3339C133.314 31.3235 134.055 31.2816 134.472 31.2293C134.878 31.1666 135.462 31.0202 135.765 30.8947C136.088 30.7483 136.464 30.466 136.703 30.1836C136.985 29.8594 137.183 29.483 137.329 28.981C137.506 28.4059 137.538 28.0712 137.496 27.4124C137.454 26.8547 137.35 26.3841 137.183 26.0007C137.048 25.687 136.766 25.2582 136.568 25.0595C136.37 24.8609 136.026 24.5994 135.796 24.4844C135.421 24.2962 135.139 24.2752 130.738 24.223V20.7721L132.699 20.7302C134.107 20.7093 134.795 20.6466 135.17 20.5315C135.462 20.4374 135.88 20.2074 136.099 20.0191C136.318 19.8309 136.589 19.4963 136.693 19.2871C136.808 19.0675 136.891 18.6806 136.891 18.4192C136.891 18.1577 136.818 17.7708 136.724 17.5617C136.641 17.3421 136.464 17.0493 136.338 16.9238C136.213 16.7878 135.88 16.5473 135.588 16.4009C135.066 16.1186 135.045 16.1186 132.876 16.1186C130.749 16.1186 130.676 16.129 130.113 16.3905C129.8 16.5369 129.351 16.8192 128.705 17.4048L127.349 16.631C126.598 16.2127 125.941 15.8467 125.889 15.8258C125.827 15.7944 125.868 15.6166 125.993 15.3866C126.108 15.167 126.463 14.7278 126.776 14.414C127.158 14.0376 127.627 13.7169 128.183 13.452C128.642 13.2324 129.351 12.9709 129.748 12.8768C130.144 12.7827 130.78 12.6677 131.156 12.6154C131.531 12.5631 132.511 12.5422 133.345 12.5631ZM59.4076 12.6154H73.5382L73.4756 13.1592C73.4339 13.4624 73.3088 13.9121 73.1836 14.1631C73.0689 14.4036 72.7665 14.801 72.5266 15.0519C72.2764 15.2925 71.8488 15.6166 71.0354 16.014L63.2662 16.0663V20.6675H66.4781C68.9914 20.6675 69.8257 20.7093 70.3575 20.8348C70.733 20.9185 71.3378 21.1381 71.7132 21.3263C72.1825 21.5564 72.6518 21.9119 73.2254 22.4975C73.7989 23.0622 74.1848 23.5642 74.4455 24.0661C74.6541 24.4635 74.9356 25.1537 75.0712 25.5824C75.2798 26.2517 75.3111 26.5758 75.3006 27.8307C75.3006 29.1274 75.2693 29.3889 75.0191 30.1313C74.8626 30.5914 74.5706 31.2712 74.3516 31.6372C74.1326 32.0136 73.6529 32.6202 73.2775 33.0071C72.7665 33.5404 72.3911 33.8018 71.7132 34.126C71.2231 34.3665 70.5452 34.6175 70.2011 34.7011C69.7318 34.7953 68.3136 34.8371 59.4598 34.8371L59.4076 12.6154ZM62.3172 25.0073L63.2662 25.6347V31.3339H69.5754C70.4514 30.8842 70.8268 30.6124 70.9624 30.445C71.1084 30.2777 71.3274 29.9222 71.4525 29.6607C71.5881 29.3993 71.7445 28.8869 71.8175 28.5104C71.8905 28.1131 71.9114 27.5902 71.8697 27.2556C71.8279 26.9419 71.7132 26.4504 71.5985 26.1576C71.4942 25.8752 71.2752 25.4465 71.1084 25.2164C70.9415 24.9863 70.5452 24.6622 70.2428 24.4844L69.6797 24.1707C61.9313 24.1184 61.1596 24.1393 61.2535 24.2439C61.3161 24.3171 61.7958 24.6622 62.3172 25.0073ZM86.2922 12.6363C90.839 12.6781 91.5482 12.699 92.1009 12.8664C92.445 12.9605 93.029 13.1905 93.394 13.3788C93.759 13.567 94.343 13.9748 94.6871 14.2886C95.0313 14.6023 95.511 15.167 95.7509 15.5434C95.9907 15.9199 96.2827 16.4637 96.4079 16.746C96.5226 17.0388 96.6999 17.6663 96.8041 18.1577C96.9397 18.827 96.9606 19.308 96.9188 20.0923C96.8771 20.6675 96.7728 21.4204 96.6894 21.7655C96.5956 22.1106 96.3244 22.7903 96.0846 23.2818C95.7509 23.972 95.4797 24.3485 94.8644 24.955C94.343 25.4883 93.8633 25.8543 93.4044 26.0739C93.029 26.2621 92.445 26.4922 92.1009 26.5863C91.5586 26.7432 90.8912 26.7745 87.1265 26.8059C83.1011 26.8373 82.7778 26.8477 82.903 27.0046C82.9656 27.1092 83.4348 27.4543 84.8531 28.4059V34.8894L81.0467 34.8371L81.0259 23.857C81.005 17.8127 81.0154 12.8141 81.0467 12.7409C81.0989 12.6258 82.0791 12.6049 86.2922 12.6363ZM84.8322 19.7995L84.8531 23.3864C90.2133 23.3864 90.9642 23.355 91.4022 23.2295C91.788 23.1145 92.0905 22.9367 92.445 22.5812C92.7787 22.2465 93.0395 21.8596 93.1959 21.4518C93.4045 20.9394 93.4462 20.6361 93.4462 19.7786C93.4357 18.942 93.394 18.6074 93.1959 18.1055C93.029 17.6767 92.7787 17.3107 92.4242 16.9552C92.1322 16.6624 91.7046 16.3591 91.4752 16.2859C91.1728 16.1709 90.2446 16.129 88.0338 16.0977C86.3652 16.0663 84.9678 16.0872 84.9157 16.129C84.8635 16.1709 84.8218 17.7395 84.8322 19.7995ZM102.06 12.6154H105.919L105.971 28.3431L110.58 21.2426C113.114 17.3316 115.336 13.9539 115.513 13.7343C115.701 13.4938 116.097 13.2219 116.535 13.0128C117.181 12.699 117.338 12.6677 119.997 12.5631V34.7848H116.139V19.0466L115.419 20.1446C115.023 20.7512 112.822 24.1602 110.507 27.7262C108.202 31.2921 106.2 34.3665 105.814 34.8894H102.06V12.6154ZM86.6051 38.0266L88.7221 43.914C89.8796 47.1453 90.839 49.8956 90.8286 50.0315C90.8286 50.2407 90.7765 50.2616 89.8901 50.2616L88.7429 46.9152H83.3723L82.2043 50.2093L81.7246 50.2407C81.297 50.2616 81.2344 50.2407 81.2344 50.0524C81.2344 49.9374 82.1834 47.2185 83.3305 44.0186C84.4881 40.8082 85.4475 38.1521 85.4788 38.1102C85.4997 38.0684 85.7708 38.0266 86.6051 38.0266ZM84.8114 42.8892C84.2274 44.4473 83.7268 45.7963 83.6955 45.9009C83.6434 46.0682 83.7998 46.0787 86.0315 46.0787C87.5645 46.0787 88.4301 46.0473 88.4301 45.9741C88.4301 45.9218 87.9086 44.4682 87.2829 42.7637C86.6468 41.0487 86.115 39.637 86.1045 39.6056C86.0837 39.5847 86.0315 39.6788 85.9689 39.8148C85.9064 39.9612 85.385 41.3415 84.8114 42.8892ZM106.941 38.0788L108.87 42.5336C109.934 44.9911 110.841 47.0094 110.883 47.0303C110.935 47.0616 111.842 45.0434 114.866 38.0266L116.013 38.0788L116.764 43.9349C117.181 47.1558 117.525 49.8956 117.525 50.0315C117.525 50.2407 117.484 50.2616 116.545 50.2093L115.899 45.0852C115.544 42.2722 115.242 39.8984 115.242 39.8043C115.231 39.6684 115.221 39.6684 115.137 39.8043C115.075 39.8984 114.199 41.8853 111.321 48.4838L110.486 48.4943L108.567 44.0709C106.774 39.9612 106.628 39.6788 106.555 40.0134C106.513 40.2226 106.221 42.5023 105.898 45.0852C105.585 47.6786 105.293 49.8956 105.272 50.0315C105.23 50.2302 105.157 50.2616 104.751 50.2616C104.375 50.2616 104.281 50.2302 104.281 50.0838C104.281 49.9792 104.615 47.2917 105.022 44.0918C105.428 40.9023 105.773 38.2253 105.804 38.152C105.835 38.0579 106.023 38.0266 106.941 38.0788ZM135.942 38.0266C136.464 38.0266 136.516 38.0475 136.599 38.3194C136.651 38.4762 137.621 41.1533 138.737 44.28C139.863 47.3963 140.781 50.0211 140.781 50.1047C140.781 50.2302 140.677 50.2616 139.79 50.2093L138.591 46.9152H133.22L132.073 50.2093L131.583 50.2407C131.197 50.2616 131.083 50.2302 131.083 50.1047C131.083 50.0211 132.011 47.3963 133.126 44.28C134.253 41.1533 135.223 38.4762 135.275 38.3194C135.369 38.0475 135.421 38.0266 135.942 38.0266ZM133.585 46.0055C133.585 46.0473 134.67 46.0787 135.984 46.0787C138.226 46.0787 138.382 46.0682 138.32 45.9009C138.289 45.7963 137.767 44.3741 137.162 42.7323C136.557 41.101 136.036 39.7206 135.994 39.6788C135.963 39.637 135.41 41.0278 134.764 42.7637C134.117 44.4996 133.585 45.9636 133.585 46.0055ZM59.4389 38.5494H60.3775V44.0918L63.5269 44.0395L66.6971 38.6017L67.1873 38.5808C67.594 38.5599 67.6774 38.5808 67.6878 38.7377C67.6878 38.8318 66.9266 40.1703 66.0089 41.6866C64.9869 43.3911 64.3612 44.5205 64.4029 44.6146C64.4342 44.7088 65.2163 46.0578 66.1236 47.6263C67.0413 49.1949 67.7817 50.5439 67.7817 50.6276C67.7817 50.7531 67.6566 50.7844 66.791 50.7844L63.433 44.8761H60.3253L60.2732 50.7844H59.4389V38.5494Z" fill="#333333"/>
<path d="M10.7588 7.29264C11.3324 7.16715 12.1771 7.02075 12.636 6.96846C13.0948 6.91618 14.4088 6.89526 15.5559 6.91618C16.7031 6.93709 18.2048 7.03121 18.893 7.12532C19.5813 7.21944 20.7806 7.40767 21.5523 7.55407C22.324 7.70047 24.295 8.13968 25.9323 8.54751C27.6947 8.98672 29.1755 9.30044 29.5822 9.31089C30.0932 9.33181 30.5938 9.46775 31.5636 9.83376C32.2832 10.1056 33.253 10.5135 33.7223 10.7435C34.202 10.9631 34.6296 11.2455 34.6922 11.3605C34.7547 11.4755 34.7965 11.6847 34.7965 11.8311C34.7965 11.9775 34.7026 12.1866 34.5879 12.3017C34.3793 12.5108 34.2437 12.5108 15.5559 12.5108L14.8781 12.835C14.5026 13.0128 13.6892 13.3892 13.0531 13.6611C12.4274 13.933 11.322 14.3513 10.6024 14.5814C9.88284 14.8114 8.82956 15.1042 8.256 15.2088C7.68243 15.3238 6.83772 15.4493 6.37887 15.4807C5.76359 15.533 5.51331 15.5121 5.40902 15.4179C5.33602 15.3447 5.27345 15.167 5.28388 15.0206C5.28388 14.8532 5.47159 14.5709 5.79488 14.2363C6.07645 13.9539 6.57701 13.3788 6.91072 12.9709C7.25486 12.5631 7.70329 11.8938 7.92229 11.486C8.13085 11.0677 8.30814 10.6599 8.30814 10.5762C8.30814 10.4612 8.24557 10.4403 8.07871 10.4821C7.94314 10.5239 7.56772 10.6913 7.24443 10.8481C6.91072 11.0154 6.32673 11.4442 5.9513 11.7997C5.56545 12.1657 5.06488 12.7409 4.83546 13.086C4.5956 13.4311 4.23061 14.0899 4.02204 14.55C3.80304 15.0101 3.51104 15.8153 3.37547 16.3277C3.22947 16.8401 3.06262 17.7395 2.98962 18.3146C2.89576 18.9943 2.87491 19.8832 2.91662 20.8766C2.95833 21.755 3.07305 22.8321 3.19819 23.4387C3.32333 24.0138 3.58404 24.9759 3.78218 25.5824C3.98032 26.1889 4.40789 27.2242 4.72075 27.883C5.04403 28.5418 5.60717 29.5562 5.98259 30.1313C6.35801 30.7065 7.00458 31.6058 7.42172 32.1182C7.83886 32.6306 8.71485 33.5718 9.37184 34.2097C10.0184 34.8475 11.1134 35.7887 11.8017 36.3011C12.49 36.824 13.4807 37.5142 13.9917 37.8279C14.5027 38.1416 15.1701 38.539 15.9731 38.9886L15.5559 38.6435C15.3265 38.4553 14.5861 37.7547 13.8978 37.0959C13.2199 36.4266 12.2605 35.3913 11.76 34.7848C11.2698 34.1887 10.4668 33.1012 9.99755 32.3796C9.51784 31.6581 8.79828 30.4137 8.41242 29.6085C8.01614 28.8032 7.53643 27.6739 7.33829 27.0987C7.14015 26.5236 6.86901 25.5615 6.73344 24.955C6.5353 24.0661 6.48316 23.5642 6.49358 22.2884C6.49358 21.1067 6.5353 20.5525 6.6813 20.0401C6.77515 19.6636 7.01501 19.0571 7.19229 18.6806C7.40086 18.2519 7.77629 17.7499 8.20385 17.3212C8.63142 16.882 9.13199 16.516 9.55956 16.3068C9.93498 16.129 10.3313 15.9617 10.446 15.9408C10.6128 15.9199 10.6545 15.9617 10.6337 16.1709C10.6337 16.3173 10.5607 17.4676 10.4877 18.7329C10.3938 20.5002 10.3834 21.4832 10.4773 22.9681C10.5398 24.0347 10.6754 25.4465 10.7693 26.1053C10.8631 26.7641 11.0925 27.9248 11.2803 28.6673C11.468 29.4098 11.8121 30.5182 12.0415 31.1248C12.2814 31.7313 12.709 32.6201 13.001 33.1116C13.2929 33.6031 13.7831 34.3038 14.0959 34.6802C14.3984 35.0567 14.8781 35.5482 15.1596 35.7887C15.4308 36.0292 15.9626 36.4161 16.3381 36.6462C16.7239 36.8867 17.0576 37.0331 17.1202 36.9913C17.1828 36.939 17.6521 36.5625 18.163 36.1547C18.674 35.7469 19.404 35.2449 19.7795 35.0567C20.1549 34.858 20.718 34.6279 21.0309 34.5338C21.3437 34.4397 21.8547 34.377 22.1676 34.3874C22.5951 34.4083 22.762 34.4711 22.8559 34.6279C22.9706 34.8057 22.9497 34.9521 22.7516 35.5691C22.5847 36.0606 22.5013 36.5416 22.5013 37.0331C22.5013 37.5351 22.5743 37.9847 22.7307 38.4448C22.8663 38.8213 23.1896 39.4487 23.4503 39.8566C23.711 40.2644 24.3471 40.986 24.8581 41.4775C25.3587 41.9689 26.0261 42.5336 26.3181 42.7323C26.6205 42.931 26.8917 43.182 26.923 43.2866C26.9542 43.3807 26.9334 43.5585 26.8708 43.6735C26.8082 43.7885 26.6622 43.8826 26.5371 43.8826C26.4015 43.8826 25.755 43.7885 25.098 43.6735C24.441 43.548 23.2939 43.297 22.543 43.0983C21.7922 42.9101 20.6972 42.5755 20.0923 42.3663C19.4875 42.1572 18.5489 41.7912 18.0066 41.5611C17.4643 41.3311 16.4736 40.8709 15.8166 40.5258C15.1596 40.1912 14.0751 39.5847 13.4181 39.1664C12.7611 38.7586 11.6974 38.037 11.0717 37.556C10.446 37.0854 9.47613 36.3011 8.93385 35.8096C8.39157 35.3181 7.56772 34.5234 7.11929 34.0423C6.66044 33.5613 5.9513 32.7352 5.53417 32.2228C5.11703 31.7104 4.41832 30.7378 3.99075 30.079C3.55276 29.4202 2.98962 28.4477 2.72891 27.9353C2.47862 27.4229 2.11363 26.5026 1.91549 25.8961C1.71735 25.2896 1.45663 24.3484 1.34192 23.8047C1.21678 23.2609 1.07078 22.2675 0.997781 21.6086C0.93521 20.9185 0.914353 19.9564 0.956067 19.3603C0.987353 18.7852 1.11249 17.8649 1.21678 17.3212C1.33149 16.7774 1.56092 15.899 1.74863 15.3866C1.92591 14.8742 2.25963 14.069 2.49948 13.6088C2.72891 13.1487 3.12519 12.4376 3.39633 12.0402C3.65704 11.6429 4.25146 10.9318 4.71032 10.4612C5.16917 10.0011 5.82616 9.42592 6.1703 9.19586C6.51444 8.9658 7.12972 8.61026 7.526 8.41157C7.92229 8.20242 8.58971 7.92008 8.98599 7.77367C9.38227 7.62727 10.1853 7.40767 10.7588 7.29264Z" fill="#6DC5C7"/>
<path d="M25.2544 17.3734C25.5985 17.2689 26.2555 17.1225 26.7144 17.0493C27.2567 16.9552 28.1222 16.9238 29.1651 16.9552C30.1245 16.9761 31.2716 17.0806 31.9808 17.2061C32.6378 17.3212 33.6076 17.5408 34.1186 17.6872C34.6296 17.8336 35.5056 18.1473 36.0479 18.3878C36.5901 18.6179 37.4036 19.0257 37.8624 19.2871C38.3108 19.559 38.9574 19.9982 39.9064 20.7721L40.6051 20.657C41.0222 20.5838 41.7627 20.5629 42.4092 20.5943C43.1288 20.6361 43.8275 20.7511 44.4428 20.9289C44.9538 21.0753 45.7255 21.3786 46.1531 21.5877C46.5806 21.7969 47.1229 22.142 47.3523 22.3511C47.7486 22.7067 47.7695 22.7485 47.6443 23.0099C47.5296 23.2504 47.4566 23.2818 46.9665 23.2818C46.6745 23.2818 46.1843 23.355 45.9028 23.4387C45.6108 23.5223 45.2249 23.7106 45.0372 23.857C44.8599 24.0034 44.6305 24.2543 44.5471 24.4321C44.4636 24.6099 44.3906 24.9341 44.3906 25.1641C44.3906 25.4674 44.5471 25.8857 44.9642 26.6804C45.2771 27.2869 45.5065 27.8412 45.4648 27.9039C45.4231 27.9945 45.2771 27.883 45.0268 27.5693C44.8182 27.3079 44.3906 26.8268 44.0778 26.4817C43.7649 26.1471 43.1079 25.5719 42.6178 25.2059C42.1277 24.8399 41.2621 24.3066 40.6885 24.0243C40.115 23.7315 39.2181 23.3655 38.7071 23.1877C38.1961 23.0204 37.268 22.7903 36.6423 22.6648C36.027 22.5393 34.8799 22.3929 34.0977 22.3302C33.3052 22.2779 32.2102 22.257 31.6679 22.2884C31.1256 22.3197 30.1871 22.3929 29.5822 22.4557C28.9774 22.5184 27.6217 22.738 26.558 22.9367C25.4004 23.1459 24.1281 23.3236 23.3773 23.355C22.5326 23.3968 21.9799 23.3655 21.6566 23.2818C21.3854 23.2086 21.0622 23.0099 20.8849 22.8217C20.6033 22.5184 20.5824 22.4557 20.645 21.9746C20.6867 21.6818 20.8953 21.0962 21.1039 20.6675C21.3854 20.0819 21.6774 19.6845 22.2719 19.0989C22.8454 18.5342 23.2834 18.21 23.8466 17.9381C24.2741 17.7185 24.9103 17.4676 25.2544 17.3734Z" fill="#6DC5C7"/>
</svg>
