<svg width="161" height="52" viewBox="0 0 161 52" fill="none" xmlns="http://www.w3.org/2000/svg">
<mask id="mask0_0_316" style="mask-type:alpha" maskUnits="userSpaceOnUse" x="0" y="0" width="161" height="52">
<rect width="160.508" height="51.3299" rx="7" fill="#D9D9D9"/>
</mask>
<g mask="url(#mask0_0_316)">
<path fill-rule="evenodd" clip-rule="evenodd" d="M-0.973712 -2.65575C-3.29974 -1.36691 -3.25911 -1.87936 -3.25911 26.1987V52.8778L-2.0123 54.1404L-0.765995 55.4035H79.9796H160.725L162.15 54.162L163.575 52.9205L163.716 26.8943C163.869 -1.52024 163.857 -1.64886 160.978 -2.75762C159.078 -3.48976 0.350802 -3.38995 -0.973712 -2.65575ZM15.9342 20.0313L16.0825 24.0187H18.6005H21.1185V19.9027V15.7867H23.4039H25.6892V26.0768V36.3669H23.4039H21.1185V32.2508V28.1348H18.5791H16.0398V32.2508V36.3669H13.7544H11.469V26.0474V15.7275L13.6274 15.886L15.7859 16.0439L15.9342 20.0313ZM38.5362 17.9733C41.6616 27.0384 44.4803 35.5488 44.4803 35.9213C44.4803 36.1662 43.4701 36.3669 42.2355 36.3669H39.9913L39.1396 33.7702L38.2884 31.1735L35.4398 31.3263L32.5917 31.4791L31.8446 33.923L31.0975 36.3669H28.6618H26.2266L29.5216 26.7199C31.3342 21.4143 32.9202 16.7838 33.0462 16.4298C33.1828 16.047 34.1869 15.7867 35.5292 15.7867C37.7236 15.7867 37.8024 15.8443 38.5362 17.9733ZM49.559 23.0237C49.559 27.0281 49.7936 30.7047 50.0846 31.2558C50.6803 32.3836 53.0627 32.6115 54.0282 31.6334C54.4472 31.209 54.6376 28.638 54.6376 23.4013V15.7867H56.923H59.2084V23.7872C59.2084 32.7561 58.8234 34.1941 56.0256 35.6754C53.7956 36.8562 49.8236 36.7625 48.107 35.4886C45.4884 33.5448 44.9897 31.6627 44.9892 23.7188C44.9887 19.7334 45.1405 16.3182 45.3269 16.1298C45.5128 15.941 46.5412 15.7867 47.6123 15.7867H49.559V23.0237ZM72.5003 16.6984C72.9797 17.1841 72.9264 17.7181 72.2555 19.1438C71.4993 20.7491 71.2723 20.9003 70.3576 20.4044C69.7862 20.0946 68.5867 19.913 67.6918 20.0005C66.3373 20.1332 66.0646 20.3755 66.0646 21.4442C66.0646 22.4572 66.6009 23.0216 68.6039 24.1165C72.2118 26.0891 73.4286 27.6913 73.4286 30.4706C73.4286 34.9582 69.3937 37.4412 63.9148 36.3247C62.4537 36.0268 61.1358 35.5833 60.9865 35.3384C60.8371 35.094 61.1073 34.0609 61.5867 33.0421C62.219 31.6993 62.6746 31.2882 63.2459 31.5465C65.0707 32.3722 67.6456 32.3388 68.349 31.4806C69.3312 30.2813 68.5643 29.2127 65.5136 27.5282C62.5547 25.8946 61.246 23.9766 61.2424 21.2661C61.2404 19.6851 61.5999 18.9205 63.0235 17.4784C64.7766 15.7023 64.8686 15.6745 68.3469 15.8736C70.2936 15.9853 72.1625 16.3562 72.5003 16.6984ZM82.0802 16.1726C82.1467 17.6168 85.59 27.7222 85.8053 27.1058C85.9541 26.6813 86.7937 23.9493 87.6712 21.0341L89.2675 15.7342L91.6158 15.8891L93.9642 16.0439L95.0825 24.8991C95.6976 29.7694 96.2831 34.1684 96.3837 34.6747C96.4847 35.1809 97.9129 31.6591 99.5578 26.8485C101.203 22.0379 102.733 17.5808 102.958 16.9443C103.299 15.9806 103.744 15.7867 105.616 15.7867C107.693 15.7867 107.909 15.9138 108.451 17.4588C111.175 25.2232 114.566 35.4166 114.566 35.8426C114.566 36.1312 113.556 36.3669 112.321 36.3669H110.077L109.225 33.7702L108.374 31.1735L105.525 31.3263L102.677 31.4791L101.93 33.923L101.183 36.3669H96.7356C91.6539 36.3669 91.9922 36.7131 91.4604 30.9646C90.8525 24.3969 90.6839 24.365 88.9196 30.4866L87.2985 36.1096H85.5844H83.8704L82.3148 30.8622C81.4595 27.9758 80.6276 25.4805 80.4667 25.3174C80.3052 25.1543 80.0192 26.8213 79.8313 29.0218C79.197 36.4394 79.2285 36.3669 76.6637 36.3669C74.6049 36.3669 74.4454 36.2737 74.6805 35.2092C74.8212 34.5728 75.4083 30.2314 75.9858 25.5623C76.5627 20.8931 77.1305 16.7838 77.2473 16.4298C77.4753 15.7399 82.0492 15.4965 82.0802 16.1726ZM123.143 21.8234L126.755 27.86V21.8234V15.7867H128.786H130.818V26.1076V36.4291L128.917 36.2691C127.086 36.1153 126.884 35.8935 123.457 30.2587L119.898 24.4072L119.755 30.3873L119.612 36.3669H117.597H115.582V26.0768V15.7867H117.556H119.53L123.143 21.8234ZM140.797 21.4606L144.276 27.1346L144.42 21.4318L144.564 15.729L146.705 15.8865L148.847 16.0439V26.0768V36.1096H146.864C144.891 36.1096 144.864 36.0813 141.623 30.7073C139.831 27.736 138.139 25.0735 137.864 24.7905C137.535 24.452 137.395 26.3001 137.458 30.1928L137.552 36.1096L135.454 36.2676L133.357 36.426V26.1061V15.7867H135.337C137.309 15.7867 137.332 15.8114 140.797 21.4606ZM34.6653 24.7612C34.1996 26.1467 33.9096 27.3733 34.0218 27.4865C34.1335 27.6002 34.8974 27.6187 35.7191 27.5282L37.2122 27.363L36.3626 24.8023L35.5129 22.2416L34.6653 24.7612ZM104.786 24.8085C104.334 26.2013 104.042 27.4201 104.137 27.5169C104.233 27.6136 104.983 27.6187 105.805 27.5282L107.298 27.363L106.454 24.8193L105.61 22.2756L104.786 24.8085Z" fill="url(#paint0_linear_0_316)"/>
</g>
<defs>
<linearGradient id="paint0_linear_0_316" x1="80.2537" y1="-3.25916" x2="80.2537" y2="55.4035" gradientUnits="userSpaceOnUse">
<stop stop-color="#C01D2D"/>
<stop offset="1" stop-color="#EF172B"/>
</linearGradient>
</defs>
</svg>
