<svg width="212" height="37" viewBox="0 0 212 37" fill="none" xmlns="http://www.w3.org/2000/svg">
<path d="M59.4128 11.633H62.4252V27.3643H59.5558V20.1223C59.5558 19.2211 59.6015 17.7584 59.6925 15.7536H59.6472C59.0877 16.6591 58.157 18.0718 56.8559 19.9917L51.7163 27.3643H48.6972V11.633H51.5729V18.862C51.5729 20.0113 51.5276 21.4741 51.4366 23.2176H51.4819C51.9828 22.3883 52.9002 20.9973 54.247 19.0448L59.4128 11.633Z" fill="#0C3259"/>
<path d="M73.8238 13.7491C73.0843 13.7428 72.3498 13.8733 71.6572 14.1343C71.0129 14.3833 70.4314 14.7712 69.9525 15.2706C69.4624 15.797 69.0858 16.4195 68.8468 17.099C68.5695 17.8984 68.4349 18.7407 68.4498 19.587C68.4328 20.4181 68.5558 21.246 68.814 22.0359C69.0272 22.6915 69.383 23.2914 69.8552 23.7925C70.3187 24.2725 70.8866 24.639 71.5143 24.8634C72.2301 25.1081 72.9829 25.2274 73.739 25.2161C74.3488 25.2151 74.9578 25.1693 75.561 25.0789C76.15 24.9879 76.7307 24.8503 77.2981 24.6675V27.149C76.7149 27.3134 76.1217 27.4378 75.5219 27.5212C74.8755 27.6132 74.2233 27.6591 73.5702 27.6583C72.376 27.682 71.1879 27.4873 70.0631 27.0837C69.1103 26.7423 68.2457 26.1912 67.5324 25.4707C66.8307 24.7671 66.2949 23.9148 65.9644 22.9762C65.614 21.9442 65.4402 20.8601 65.4506 19.7699C65.4398 18.63 65.6248 17.4968 65.9968 16.4199C66.3394 15.4332 66.8744 14.5251 67.5715 13.7491C68.286 12.9726 69.164 12.3659 70.1412 11.9728C71.2511 11.524 72.4387 11.302 73.6351 11.3198C74.2665 11.3153 74.8971 11.359 75.5219 11.4504C76.0685 11.5281 76.6064 11.6571 77.1289 11.8357V14.2845C76.5574 14.1012 75.9721 13.9636 75.3789 13.8731C74.8639 13.7951 74.3442 13.7536 73.8238 13.7491Z" fill="#0C3259"/>
<path d="M86.6473 27.3643H83.7716V14.0166H78.7031V11.633H91.7154V14.0427H86.6535L86.6473 27.3643Z" fill="#0C3259"/>
<path d="M107.948 19.4692C107.962 20.5917 107.788 21.7086 107.434 22.7735C107.125 23.7392 106.617 24.629 105.944 25.3856C105.28 26.1203 104.459 26.6961 103.543 27.0704C101.449 27.8743 99.132 27.8743 97.0373 27.0704C96.1208 26.6946 95.2985 26.1191 94.6301 25.3856C93.9617 24.6257 93.4545 23.7368 93.1403 22.7735C92.794 21.7071 92.6244 20.5908 92.6394 19.4692C92.6273 18.3473 92.7986 17.2311 93.1469 16.1649C93.4591 15.2006 93.9662 14.3114 94.6367 13.5529C95.3048 12.8193 96.127 12.2439 97.044 11.8681C99.1386 11.0642 101.455 11.0642 103.55 11.8681C104.467 12.2546 105.285 12.8439 105.944 13.5921C106.619 14.3474 107.127 15.2376 107.434 16.2041C107.783 17.2567 107.957 18.3599 107.948 19.4692ZM105.001 19.4692C105.02 18.6177 104.901 17.7686 104.649 16.9551C104.447 16.2983 104.118 15.6881 103.68 15.1593C103.276 14.6905 102.768 14.3236 102.197 14.0884C100.989 13.6196 99.6503 13.6196 98.4428 14.0884C97.8733 14.3234 97.367 14.6904 96.9658 15.1593C96.5244 15.6864 96.1923 16.297 95.9898 16.9551C95.7417 17.7694 95.6232 18.6178 95.6386 19.4692C95.6232 20.3206 95.7417 21.1691 95.9898 21.9833C96.191 22.6401 96.5227 23.2488 96.9658 23.7726C97.3686 24.2412 97.8741 24.61 98.4428 24.8501C99.6503 25.3188 100.989 25.3188 102.197 24.8501C102.767 24.61 103.275 24.2413 103.68 23.7726C104.119 23.2469 104.448 22.6386 104.649 21.9833C104.901 21.1698 105.02 20.3208 105.001 19.4692Z" fill="#0C3259"/>
<path d="M110.999 27.3643V11.633H113.875V18.8163H113.921L119.848 11.633H123.413L116.868 19.4693L123.953 27.4231H120.271L113.921 20.3052H113.875V27.4231L110.999 27.3643Z" fill="#0C3259"/>
<path d="M124.656 20.2008H129.86V22.7345H124.656V20.2008Z" fill="#0C3259"/>
<path d="M142.085 23.3482H136.171L134.636 27.3643H131.572L137.824 11.633H140.426L146.653 27.3904H143.614L142.085 23.3482ZM139.106 15.3944C138.559 17.0488 138.069 18.4266 137.635 19.5281L137.102 20.932H141.162L140.622 19.5281C140.199 18.4114 139.704 17.0335 139.151 15.3944H139.106Z" fill="#0C3259"/>
<path d="M155.943 23.6617C155.639 24.3226 155.269 24.9506 154.837 25.5358C154.489 26.0127 154.067 26.4314 153.588 26.7766C153.138 27.0807 152.638 27.3019 152.111 27.4296C151.521 27.5739 150.916 27.644 150.309 27.6386C150.049 27.6386 149.763 27.6255 149.45 27.5994C149.155 27.5694 148.862 27.5237 148.572 27.4622V25.02C149.099 25.1452 149.638 25.2109 150.179 25.2159C150.508 25.2227 150.837 25.1831 151.155 25.0983C151.449 25.0173 151.723 24.8773 151.962 24.6869C152.242 24.4606 152.486 24.1919 152.684 23.8902C152.958 23.4788 153.191 23.0413 153.38 22.5842L147.29 11.633H150.478L154.889 19.6978L158.572 11.633H161.688L155.943 23.6617Z" fill="#0C3259"/>
<path d="M161.714 24.9481C162.336 24.146 162.906 23.304 163.419 22.4275C163.975 21.4812 164.456 20.492 164.857 19.4693C165.298 18.3089 165.661 17.1198 165.943 15.9103C166.258 14.4997 166.488 13.0714 166.633 11.633H174.765V24.9481H176.633V29.8654H173.763V27.3643H163.614V29.8654H160.751V24.9481H161.714ZM169.047 14.0166C168.902 15.1321 168.7 16.2393 168.441 17.3339C168.21 18.2802 167.921 19.2114 167.576 20.1223C167.252 20.9697 166.871 21.7943 166.437 22.5907C166.008 23.3678 165.54 24.1319 165.026 24.8893V24.9351H171.89V14.0166H169.047Z" fill="#0C3259"/>
<path d="M190.627 11.633H193.646V27.3643H190.77V20.1223C190.77 19.2211 190.816 17.7584 190.913 15.7536H190.881C190.339 16.6679 189.4 18.0849 188.064 20.0048L182.95 27.3773H179.931V11.633H182.813V18.862C182.813 20.0113 182.761 21.4741 182.67 23.2176H182.716C183.215 22.3905 184.139 20.9995 185.488 19.0448L190.627 11.633Z" fill="#0C3259"/>
<path d="M212 19.4691C212.01 20.5913 211.836 21.7077 211.485 22.7733C211.176 23.739 210.669 24.6288 209.996 25.3854C209.328 26.1203 208.506 26.6959 207.588 27.0702C205.494 27.8741 203.177 27.8741 201.082 27.0702C200.167 26.6813 199.349 26.0924 198.688 25.3462C198.02 24.5863 197.512 23.6975 197.198 22.7342C196.849 21.6681 196.678 20.5518 196.691 19.4299C196.679 18.308 196.85 17.1917 197.198 16.1256C197.52 15.189 198.027 14.3273 198.688 13.5919C199.356 12.8583 200.179 12.2829 201.095 11.9071C203.19 11.1032 205.507 11.1032 207.602 11.9071C208.519 12.2813 209.342 12.857 210.009 13.5919C210.683 14.3472 211.191 15.2374 211.499 16.204C211.84 17.258 212.01 18.3606 212 19.4691ZM209.026 19.4691C209.042 18.6177 208.923 17.7692 208.675 16.9549C208.472 16.2969 208.141 15.6863 207.699 15.1591C207.299 14.6891 206.792 14.3219 206.222 14.0882C205.014 13.6195 203.676 13.6195 202.468 14.0882C201.898 14.3219 201.392 14.6891 200.991 15.1591C200.549 15.6863 200.218 16.2969 200.015 16.9549C199.767 17.7692 199.649 18.6177 199.664 19.4691C199.649 20.3204 199.767 21.1689 200.015 21.9832C200.216 22.6399 200.548 23.2487 200.991 23.7725C201.393 24.2425 201.899 24.6115 202.468 24.8499C203.676 25.3186 205.014 25.3186 206.222 24.8499C206.791 24.6115 207.297 24.2425 207.699 23.7725C208.142 23.2487 208.474 22.6399 208.675 21.9832C208.923 21.1689 209.042 20.3204 209.026 19.4691Z" fill="#0C3259"/>
<path d="M37.013 24.1095C37.0117 24.8532 36.7909 25.5797 36.3783 26.1974C35.9657 26.8151 35.38 27.2962 34.6951 27.5799C34.0102 27.8636 33.2569 27.9371 32.5304 27.7913C31.8039 27.6454 31.1368 27.2866 30.6133 26.7604C30.0899 26.2341 29.7336 25.5638 29.5895 24.8344C29.4455 24.1049 29.5201 23.349 29.8039 22.6621C30.0877 21.9751 30.5681 21.388 31.1842 20.975C31.8003 20.562 32.5246 20.3416 33.2655 20.3416C33.7582 20.3416 34.246 20.4391 34.7011 20.6285C35.1562 20.8179 35.5696 21.0956 35.9177 21.4456C36.2658 21.7956 36.5416 22.2109 36.7296 22.6681C36.9176 23.1252 37.0139 23.615 37.013 24.1095Z" fill="#BDC1C9"/>
<path d="M36.4339 10.0632C36.4339 11.1843 36.1028 12.2802 35.4822 13.2123C34.8617 14.1445 33.9797 14.871 32.9478 15.3C31.9159 15.729 30.7804 15.8413 29.685 15.6225C28.5895 15.4038 27.5833 14.864 26.7935 14.0713C26.0037 13.2786 25.4659 12.2686 25.248 11.1691C25.03 10.0695 25.1419 8.92984 25.5693 7.89411C25.9967 6.85839 26.7206 5.97316 27.6492 5.35032C28.5779 4.72748 29.6698 4.39503 30.7867 4.39503C32.2844 4.39503 33.7208 4.99225 34.7799 6.05522C35.839 7.11824 36.4339 8.55997 36.4339 10.0632Z" fill="#E61D2F"/>
<path d="M22.0035 5.22415C22.0035 6.25737 21.6982 7.26744 21.1263 8.12655C20.5544 8.98562 19.7415 9.65523 18.7905 10.0506C17.8394 10.446 16.7929 10.5495 15.7832 10.3479C14.7736 10.1463 13.8462 9.64881 13.1183 8.9182C12.3904 8.18759 11.8947 7.25672 11.6938 6.24331C11.493 5.22995 11.5961 4.17954 11.99 3.22495C12.384 2.27036 13.0511 1.45446 13.907 0.88043C14.7629 0.306391 15.7692 0 16.7987 0C18.1791 0 19.5029 0.550398 20.479 1.53012C21.4551 2.50984 22.0035 3.83862 22.0035 5.22415Z" fill="#0C3259"/>
<path d="M9.75911 13.8959C9.75911 14.8646 9.47291 15.8115 8.93676 16.6169C8.40056 17.4223 7.63848 18.0501 6.74688 18.4208C5.85523 18.7915 4.87413 18.8884 3.9276 18.6995C2.98106 18.5105 2.11161 18.0441 1.42919 17.3591C0.746772 16.6742 0.28204 15.8015 0.0937613 14.8514C-0.0945171 13.9014 0.00211424 12.9166 0.371436 12.0217C0.740757 11.1268 1.36618 10.3618 2.16862 9.82371C2.97106 9.28553 3.91447 8.99831 4.87953 8.99831C6.17369 8.99831 7.4148 9.51429 8.3299 10.4328C9.24499 11.3513 9.75911 12.597 9.75911 13.8959Z" fill="#3B4E74"/>
<path d="M11.9451 27.427C11.9451 28.3311 11.678 29.2148 11.1776 29.9665C10.6772 30.7183 9.96591 31.3042 9.13371 31.6501C8.30155 31.9961 7.38583 32.0866 6.50241 31.9103C5.61896 31.7339 4.80745 31.2985 4.17054 30.6593C3.53362 30.02 3.09988 29.2055 2.92415 28.3187C2.74842 27.432 2.83861 26.5129 3.18331 25.6777C3.52801 24.8424 4.11174 24.1285 4.8607 23.6262C5.60964 23.1239 6.49015 22.8559 7.3909 22.8559C8.59876 22.8559 9.75715 23.3375 10.6112 24.1947C11.4653 25.0519 11.9451 26.2146 11.9451 27.427Z" fill="#6A6B8B"/>
<path d="M25.2891 32.8795C25.2865 33.6964 25.0428 34.4943 24.5887 35.1724C24.1346 35.8505 23.4905 36.3783 22.7377 36.6891C21.985 37 21.1573 37.0799 20.3593 36.919C19.5613 36.758 18.8287 36.3633 18.2541 35.7847C17.6794 35.2061 17.2884 34.4695 17.1306 33.668C16.9728 32.8666 17.0551 32.0361 17.3671 31.2815C17.6792 30.527 18.2071 29.8822 18.884 29.4285C19.561 28.9749 20.3567 28.7328 21.1707 28.7328C21.7124 28.7336 22.2486 28.8416 22.7488 29.0504C23.2489 29.2593 23.7031 29.565 24.0855 29.95C24.468 30.3351 24.7711 30.7919 24.9776 31.2946C25.1841 31.7972 25.2899 32.3358 25.2891 32.8795Z" fill="#9190A8"/>
</svg>
