<svg width="205" height="10" viewBox="0 0 205 10" fill="none" xmlns="http://www.w3.org/2000/svg">
<path d="M16.8731 0.153665L9.86413 4.10537L2.85512 0.142688L0.0107335 0.153665L0 9.9012H2.84439V2.6125L9.86413 6.50932L16.8624 2.6125V9.9012H19.7175L19.7283 0.142688L16.8731 0.153665Z" fill="#C5474D"/>
<path fill-rule="evenodd" clip-rule="evenodd" d="M46.7017 9.90128H43.224L40.9378 7.89249H27.6926L25.4171 9.90128H21.9609L32.9842 0.153746H35.6461L46.7017 9.90128ZM38.6623 5.89469L34.3152 1.72345L29.9573 5.89469H38.6623Z" fill="#C5474D"/>
<path d="M78.1617 0.153746H75.3065V9.87932H78.1617V0.153746Z" fill="#C5474D"/>
<path d="M62.6302 4.99458L72.2367 0.153746H67.5784L60.344 3.78712L53.0988 0.153746H48.4405L58.047 4.99458L48.4083 9.90128H53.0666L60.344 6.20204L67.6106 9.90128H72.2582L62.6302 4.99458Z" fill="#C5474D"/>
<path d="M118.402 0.153746V2.16253H127.193V9.8903H130.037V2.16253H138.828V0.153746H118.402Z" fill="#C5474D"/>
<path d="M169.053 7.88152L169.064 0.153746H166.177V9.8903H184.177V7.88152H169.053Z" fill="#C5474D"/>
<path d="M114.806 5.29089C113.776 4.88474 111.844 4.5225 108.881 4.17124C106.359 3.88584 104.126 3.64435 103.353 3.41383C102.881 3.28211 102.323 3.0955 102.312 2.71131C102.301 2.28321 102.892 2.14051 103.375 1.9978C104.148 1.75631 105.725 1.61361 106.96 1.61361C108.323 1.61361 109.557 1.70143 110.502 1.92097C111.414 2.12953 112.176 2.44786 112.552 2.83205L112.627 2.93085H116.201L115.826 2.56861C114.709 1.7124 113.84 1.07574 112.391 0.64764C110.888 0.197585 109.31 0 107.142 0C104.609 0 102.505 0.25247 100.906 0.735456C99.2209 1.25137 98.3622 1.9539 98.3622 2.79912C98.3622 3.46872 98.974 4.01756 100.198 4.44566C101.335 4.84083 103.321 5.22503 106.112 5.58727C106.326 5.63117 106.638 5.67508 107.003 5.70801C112.767 6.35565 112.659 6.88255 112.659 7.12404C112.659 7.44237 112.262 7.71679 111.479 7.94731C110.598 8.19978 108.86 8.39737 107.357 8.39737C105.801 8.39737 104.48 8.25467 103.418 8.02415C101.765 7.68386 101.582 7.44237 101.046 6.98134L100.96 6.88255H97.2889L97.5035 7.22283C98.1261 8.12294 99.1028 8.7596 100.809 9.33041C102.205 9.80241 103.954 10 106.627 10C109.568 10 111.94 9.75851 113.69 9.26454C115.525 8.7596 116.459 8.03513 116.459 7.12404C116.459 6.34468 115.912 5.72997 114.806 5.29089Z" fill="#C5474D"/>
<path d="M186.313 0.153746V9.8903H205V7.88152H189.189V6.04837H199.44V4.02861H189.189V2.1296H205V0.153746H186.313Z" fill="#C5474D"/>
<path d="M159.662 0.153746L152.395 3.79809L145.128 0.153746H140.47C140.47 0.153746 150.903 5.4117 150.957 5.44464L150.967 9.90128H153.812L153.823 5.44464C153.865 5.42268 164.309 0.153746 164.309 0.153746H159.662Z" fill="#C5474D"/>
</svg>
