<svg width="198" height="28" viewBox="0 0 198 28" fill="none" xmlns="http://www.w3.org/2000/svg">
<path d="M4.09597 0.0302318C4.99891 -0.0156043 5.90582 0.0103031 6.80876 0.0142888C7.31282 -0.0255686 7.53112 0.510514 7.71766 0.881188C10.5475 6.78408 13.435 12.6591 16.239 18.5719C16.3641 18.4523 16.4712 18.3188 16.5605 18.1713C19.571 12.2844 22.6072 6.40942 25.6237 0.524464C25.7566 0.279341 25.9749 -0.001654 26.2865 0.0202676C27.1239 0.0162818 27.9673 -0.0415117 28.7988 0.0581319C28.9913 0.249448 29.033 0.524464 29.0786 0.779551C30.2197 9.29709 31.3588 17.8166 32.4999 26.3342C32.5793 26.7068 32.5336 27.3087 32.0276 27.2967C30.3705 27.3246 28.7115 27.3047 27.0525 27.3067C26.6635 27.3704 26.2508 27.0795 26.2309 26.6729C25.7943 21.1387 25.3399 15.5866 24.306 10.1281C21.5297 15.4092 18.8546 20.7461 16.0981 26.0372C15.7171 26.7487 14.7824 26.7666 14.1017 26.5793C13.558 26.4059 13.3536 25.83 13.1313 25.3616C10.8492 20.6206 8.55511 15.8835 6.267 11.1425C6.06657 10.712 5.86415 10.2816 5.6141 9.87702C4.52264 15.3953 3.95904 21.0052 3.48277 26.6072C3.46292 26.936 3.23868 27.2808 2.87949 27.2887C1.92098 27.3465 0.958506 27.2867 0 27.3127C1.21649 18.5281 2.50045 9.75346 3.71892 0.968874C3.77647 0.638058 3.79433 0.243469 4.09597 0.0302318ZM94.5051 1.57869C94.6916 0.956918 95.4358 1.12233 95.9299 1.09044C96.5273 1.05855 97.3092 1.12033 97.5413 1.78795C98.986 5.37512 100.461 8.95033 101.879 12.5475C100.103 12.9919 98.2974 13.3048 96.5193 13.7352C95.8724 12.0492 95.2671 10.3473 94.6718 8.64143C93.7688 10.6961 93.2668 12.9261 92.3916 14.9887C91.0699 15.5946 89.7641 16.2701 88.6409 17.2048C88.3194 17.4758 88.0059 17.7568 87.6507 17.98C89.9646 12.5255 92.207 7.03916 94.5051 1.57869ZM139.815 1.23393C142.96 0.911082 146.26 1.16218 149.148 2.53926C152.525 4.16146 155.208 7.29027 156.062 10.9791C156.699 13.785 156.615 16.7963 155.641 19.5165C154.355 23.034 151.386 25.8399 147.89 27.0914C144.885 28.1277 141.607 28.2134 138.497 27.6714C134.907 27.0317 131.621 24.8415 129.686 21.7346C127.87 18.823 127.444 15.2079 127.999 11.8619C128.464 9.01609 129.96 6.36557 132.147 4.49825C134.256 2.59705 137.013 1.52289 139.815 1.23393ZM140.492 3.54167C138.648 3.86252 137.019 5.02238 135.995 6.57881C134.33 8.93837 133.927 11.9197 133.974 14.7436C133.939 17.6811 134.518 20.782 136.427 23.1037C139.069 26.5394 144.917 26.6112 147.669 23.2791C149.346 21.338 150.092 18.7652 150.223 16.2383C150.309 13.8169 150.315 11.3238 149.493 9.0141C148.884 7.33411 147.88 5.74978 146.435 4.67761C144.738 3.45 142.512 3.171 140.492 3.54167ZM37.2349 2.59506C37.1872 2.25029 37.3976 1.81784 37.7846 1.81585C39.2471 1.77997 40.7117 1.7999 42.1742 1.80588C42.5989 1.76005 42.8629 2.2204 42.8371 2.59904C42.847 8.05752 42.8391 13.516 42.841 18.9745C43.0891 18.7852 43.3133 18.5679 43.5197 18.3328C48.1257 13.2091 52.3249 7.73468 56.4844 2.24431C57.1928 1.50097 58.3319 1.88161 59.2368 1.80987C59.6 1.73812 59.7369 2.08887 59.7072 2.3878C59.7151 10.3673 59.7032 18.3467 59.7131 26.3262C59.7627 26.7507 59.5563 27.3326 59.0424 27.2987C57.6373 27.3206 56.2303 27.3087 54.8233 27.3047C54.4721 27.3565 54.103 27.0755 54.1129 26.7068C54.0772 21.1726 54.1347 15.6344 54.0831 10.0982C49.4652 14.923 45.534 20.3516 41.4122 25.5968C40.8883 26.1787 40.5549 27.0675 39.7353 27.2748C38.9614 27.3346 38.1775 27.3406 37.4055 27.2688C37.1674 27.0914 37.2626 26.7527 37.2309 26.5016C37.2408 18.5321 37.2309 10.5646 37.2349 2.59506ZM66.0119 2.60104C65.9563 2.17855 66.2857 1.7162 66.7441 1.80389C69.2624 1.79392 71.7847 1.8019 74.305 1.8019C76.3411 1.8557 78.4407 2.053 80.2942 2.97171C82.7867 4.22722 84.4437 6.9734 84.4239 9.77139C84.4636 11.6686 84.023 13.6495 82.8204 15.1541C81.6297 16.6727 79.8199 17.5615 77.9882 18.0279C75.9105 18.546 73.7454 18.6915 71.6121 18.5958C71.62 21.2304 71.62 23.867 71.6141 26.5016C71.6696 26.9061 71.3739 27.3565 70.9334 27.3027C69.4728 27.3067 68.0082 27.3306 66.5497 27.2907C66.1805 27.2708 65.9761 26.8503 66.0119 26.5175C66.0079 18.544 66.0079 10.5725 66.0119 2.60104ZM71.618 4.09569C71.618 8.24684 71.6101 12.398 71.622 16.5492C73.4338 16.6448 75.3985 16.3279 76.7876 15.0645C78.2621 13.7512 78.7383 11.6746 78.7185 9.76741C78.7443 8.19104 78.2383 6.50507 76.9801 5.48472C75.4977 4.25512 73.4755 4.01398 71.618 4.09569ZM107.821 1.79791C113.975 1.82182 120.131 1.76005 126.281 1.8278C126.326 1.87762 126.416 1.97727 126.459 2.02709C126.497 2.92787 126.537 3.84459 126.437 4.74338C126.229 5.13996 125.731 4.99049 125.38 4.95263C123.57 4.61384 121.728 4.51419 119.891 4.48829C119.885 11.83 119.895 19.1718 119.887 26.5135C119.93 26.926 119.593 27.3924 119.146 27.3047C117.751 27.3107 116.356 27.3166 114.961 27.3027C114.529 27.3505 114.233 26.9141 114.284 26.5155C114.276 19.1718 114.288 11.828 114.278 4.4843C112.318 4.50622 110.357 4.6537 108.424 5.00245C108.041 5.11803 107.619 4.83505 107.658 4.41654C107.666 3.54964 107.472 2.61897 107.821 1.79791ZM160.969 2.58111C160.906 2.20645 161.178 1.78396 161.587 1.80787C164.111 1.78595 166.635 1.80588 169.161 1.7999C171.289 1.8577 173.507 2.04303 175.416 3.07534C177.883 4.38067 179.425 7.18066 179.377 9.96072C179.37 11.9934 178.804 14.1278 177.357 15.6125C175.702 17.3563 173.293 18.0837 170.983 18.4105C169.527 18.5759 168.05 18.7034 166.585 18.5859C166.55 21.2324 166.593 23.8809 166.566 26.5275C166.603 26.9599 166.23 27.3764 165.788 27.3047C164.389 27.3107 162.988 27.3186 161.589 27.3007C161.18 27.3226 160.898 26.9001 160.969 26.5215C160.967 18.542 160.965 10.5606 160.969 2.58111ZM166.572 4.10167C166.576 8.24884 166.572 12.398 166.574 16.5472C168.318 16.6348 170.193 16.3499 171.576 15.2C172.94 14.082 173.523 12.2924 173.634 10.5785C173.793 8.82677 173.442 6.8618 172.09 5.6302C170.61 4.28103 168.493 4.00801 166.572 4.10167ZM183.741 2.59506C183.692 2.20047 183.985 1.75407 184.418 1.80588C188.79 1.79791 193.164 1.78994 197.537 1.80987C197.946 1.78795 197.93 2.3041 197.954 2.58709C197.96 3.29655 198.107 4.05185 197.841 4.72743C197.629 5.1559 197.093 4.97853 196.726 4.95063C194.287 4.55206 191.81 4.51818 189.346 4.49626C189.346 11.838 189.35 19.1797 189.344 26.5215C189.395 26.942 189.052 27.3844 188.607 27.3047C187.21 27.3107 185.813 27.3186 184.418 27.3007C184.001 27.3366 183.698 26.9061 183.739 26.5175C183.739 18.544 183.735 10.5685 183.741 2.59506ZM104.37 19.0283L104.459 18.9645C105.531 21.4177 106.468 23.9327 107.503 26.4039C107.664 26.6988 107.755 27.3286 107.251 27.2947C105.594 27.3326 103.935 27.2967 102.276 27.3107C101.808 27.3625 101.326 27.0974 101.187 26.6331C100.645 25.1404 100.072 23.6557 99.5794 22.1471C100.496 21.7167 101.486 21.3978 102.32 20.79C103.094 20.3137 103.705 19.6361 104.37 19.0283Z" fill="#575656"/>
<path d="M103.8 13.1075C104.816 12.7467 105.709 12.131 106.547 11.4633C106.055 14.076 105.005 16.6767 103.155 18.6217C101.689 20.1523 99.6766 21.0291 97.6227 21.4118C95.4239 21.8641 93.112 21.7067 90.9886 22.5178C91.4748 21.8283 92.0046 21.1507 92.6992 20.6604C94.4118 19.3711 96.5352 18.8908 98.5296 18.2291C99.887 17.7887 101.28 17.2247 102.26 16.1426C99.9326 17.3383 97.2457 17.3523 94.8127 18.2371C93.0862 18.827 91.4807 19.9251 90.5361 21.5214C89.5697 23.1456 89.1509 25.0209 88.4306 26.7547C88.2917 27.0815 87.9603 27.3146 87.603 27.3027C86.331 27.3206 85.0609 27.3127 83.7908 27.2967C84.9022 24.7658 85.7158 22.0276 87.5336 19.8852C89.268 17.7469 91.7327 16.3259 94.3304 15.5148C97.4302 14.4885 100.74 14.2633 103.8 13.1075Z" fill="#64AF41"/>
</svg>
