<svg width="20" height="20" viewBox="0 0 20 20" fill="none" xmlns="http://www.w3.org/2000/svg">
<path d="M0 5.13935C0 3.36775 0 2.48196 0.344775 1.8053C0.648048 1.21009 1.13197 0.726173 1.72717 0.4229C2.40383 0.078125 3.28963 0.078125 5.06122 0.078125H14.9388C16.7104 0.078125 17.5962 0.078125 18.2728 0.4229C18.868 0.726173 19.352 1.21009 19.6552 1.8053C20 2.48196 20 3.36775 20 5.13935V14.8638C20 16.6354 20 17.5212 19.6552 18.1979C19.352 18.7931 18.868 19.277 18.2728 19.5803C17.5962 19.9251 16.7104 19.9251 14.9388 19.9251H5.06122C3.28963 19.9251 2.40383 19.9251 1.72717 19.5803C1.13197 19.277 0.648048 18.7931 0.344775 18.1979C0 17.5212 0 16.6354 0 14.8638V5.13935Z" fill="url(#paint0_linear_0_285)"/>
<path d="M11.4532 13.128C12.1843 12.9622 12.8894 12.6743 13.5389 12.2683C14.0304 11.9598 14.1784 11.3131 13.8688 10.8239C13.5593 10.3336 12.9101 10.1859 12.4177 10.4944C10.9465 11.4154 9.05234 11.4151 7.58197 10.4944C7.08963 10.1859 6.44019 10.3336 6.13137 10.8239C5.8217 11.3135 5.96934 11.9598 6.46082 12.2683C7.11026 12.6739 7.81536 12.9622 8.54646 13.128L6.5384 15.1269C6.12794 15.5359 6.12794 16.1991 6.53883 16.6081C6.74449 16.8124 7.01355 16.9147 7.28261 16.9147C7.5521 16.9147 7.82159 16.8124 8.02725 16.6081L9.99963 14.6439L11.9737 16.6081C12.3842 17.0171 13.0502 17.0171 13.4611 16.6081C13.8724 16.1991 13.8724 15.5355 13.4611 15.1269L11.4532 13.128Z" fill="white"/>
<path d="M13.5714 6.66034C13.5714 8.62947 11.9586 10.2312 9.9745 10.2312C7.99084 10.2312 6.37756 8.62947 6.37756 6.66034C6.37756 4.69057 7.99084 3.08838 9.9745 3.08838C11.9586 3.08838 13.5714 4.69057 13.5714 6.66034ZM11.4638 6.66033C11.4638 5.84481 10.7958 5.18166 9.97451 5.18166C9.15388 5.18166 8.4852 5.84481 8.4852 6.66033C8.4852 7.47521 9.15388 8.13878 9.97451 8.13878C10.7958 8.13878 11.4638 7.47521 11.4638 6.66033Z" fill="white"/>
<defs>
<linearGradient id="paint0_linear_0_285" x1="10" y1="0.078125" x2="10" y2="19.9251" gradientUnits="userSpaceOnUse">
<stop stop-color="#F98509"/>
<stop offset="1" stop-color="#F95D00"/>
</linearGradient>
</defs>
</svg>
