<svg width="68" height="92" viewBox="0 0 68 92" fill="none" xmlns="http://www.w3.org/2000/svg">
<path fill-rule="evenodd" clip-rule="evenodd" d="M18.1676 83.6227C19.6711 83.6227 20.8911 84.9817 20.8911 86.6559C20.8911 88.3301 19.6711 89.6891 18.1676 89.6891C16.6641 89.6891 15.4442 88.3301 15.4442 86.6559C15.4442 84.9817 16.6641 83.6227 18.1676 83.6227ZM18.1676 81.3118C21.1631 81.3118 23.5924 83.705 23.5924 86.6559C23.5924 89.6068 21.1631 92 18.1676 92C15.1721 92 12.7429 89.6068 12.7429 86.6559C12.7429 83.705 15.1721 81.3118 18.1676 81.3118ZM30.8542 83.6227C31.7838 83.6227 32.6583 84.0359 33.1498 84.8282L34.9317 83.1322C33.9373 82.0165 32.4793 81.3118 30.8542 81.3118C27.8588 81.3118 25.4295 83.705 25.4295 86.6559C25.4295 89.6068 27.8588 92 30.8542 92C32.5169 92 34.0048 91.2622 35 90.1013L33.1483 88.5279C32.654 89.2951 31.7662 89.6891 30.8542 89.6891C29.3508 89.6891 28.1308 88.3301 28.1308 86.6559C28.1308 84.9817 29.3508 83.6227 30.8542 83.6227ZM48.7856 87.3573H56.5775C56.6069 87.1277 56.6223 86.8936 56.6223 86.6559C56.6223 83.705 54.2791 81.3118 51.3899 81.3118C48.5007 81.3118 46.1576 83.705 46.1576 86.6559C46.1576 89.6068 48.5007 92 51.3899 92C53.0376 92 54.9321 91.7225 55.8913 90.5062L54.7 88.7951C54.1024 89.6477 52.5214 89.8852 51.5125 89.8852C50.179 89.8852 49.0629 88.8029 48.7856 87.3573ZM48.845 85.6959C49.1988 84.3817 50.2597 83.4266 51.5124 83.4266C52.7653 83.4266 53.8262 84.3817 54.18 85.6959H48.845ZM36.5733 81.556H44.9589V83.849H42.0608V91.7558H39.4714V83.849H36.5733V81.556ZM60.9082 86.4975L57.3784 81.556H60.4967L62.6093 84.7134L64.7219 81.556H67.8402L64.3104 86.4975L68 91.7558H64.9867L62.6093 88.3418L60.2319 91.7558H57.2186L60.9082 86.4975ZM62.6093 85.1912L62.5971 85.2113L62.6093 85.2116L62.6214 85.2113L62.6093 85.1912ZM6.44391 80.2163C7.56854 80.2163 8.48054 81.1214 8.48054 82.2375C8.48054 83.3536 7.56854 84.2586 6.44391 84.2586H3.01121V80.2163H6.44391ZM0.166956 77.8161H7.02938C9.48952 77.8161 11.4846 79.7961 11.4846 82.2374C11.4846 84.6789 9.48946 86.6588 7.02938 86.6588H3.01121V91.7558H0.166956V77.8161Z" fill="#282828"/>
<path fill-rule="evenodd" clip-rule="evenodd" d="M8.68406 8.61816H31.3901L22.706 0H0V22.5338L8.68406 31.1519V8.61816ZM36.0784 8.61816H58.7844V31.1519L67.4685 22.5338V0H44.7625L36.0784 8.61816ZM58.7844 35.8046V58.3384H36.0784L44.7625 66.9565H67.4685V44.4228L58.7844 35.8046ZM31.3901 58.3384H8.68406V35.8046L0 44.4228V66.9565H22.706L31.3901 58.3384Z" fill="#282828"/>
</svg>
