<svg width="207" height="11" viewBox="0 0 207 11" fill="none" xmlns="http://www.w3.org/2000/svg">
<path d="M20.1683 0C20.1683 0 18.5139 1.74919 18.5139 5.25243C18.5139 8.75567 20.1868 10.5 20.1868 10.5H35.1972C35.1972 10.5 36.8655 8.75081 36.8655 5.25243C36.8655 1.75405 35.1972 0 35.1972 0H20.1683ZM31.1978 8.74595H24.1584C23.287 6.50149 23.287 3.98879 24.1584 1.74433H31.1978C32.0692 3.98879 32.0692 6.50149 31.1978 8.74595Z" fill="#C41442"/>
<path d="M40.2022 0C40.2022 0 38.5338 1.74919 38.5338 5.25243C38.5338 8.75567 40.2022 10.5 40.2022 10.5H53.5488V8.75081H44.183C43.3116 6.50636 43.3116 3.99365 44.183 1.74919H53.5488V0H40.2022Z" fill="#C41442"/>
<path d="M73.3186 0C73.3186 0 71.6502 1.74919 71.6502 5.25243C71.6502 8.75567 73.3186 10.5 73.3186 10.5H86.6699V8.75081H77.3087C76.4372 6.50636 76.4372 3.99365 77.3087 1.74919H86.6699V0H73.3186Z" fill="#C41442"/>
<path d="M55.2125 0V1.75405H60.2222V10.5H65.2318V1.74919H70.2414V0H55.2125Z" fill="#C41442"/>
<path d="M154.27 4.0863L150.099 0H145.089V10.5H150.099V2.44887L154.27 6.53517L158.441 2.44887V10.5H163.455V0H158.441L154.27 4.0863Z" fill="#C41442"/>
<path d="M201.845 0V8.75081H198.508V0H193.499V8.75081H190.157V0H185.152V10.5H206.85V0H201.845Z" fill="#C41442"/>
<path d="M110.04 0L106.704 10.5H111.709L114.489 1.75405H120.055V10.5H125.06V0H110.04Z" fill="#C41442"/>
<path d="M142.341 1.74919H131.738V0H126.733V10.5H142.355C142.658 9.94949 142.894 9.36201 143.059 8.75081C143.296 7.90166 143.416 7.02145 143.416 6.13674C143.419 5.24321 143.295 4.35421 143.05 3.49839C142.884 2.8869 142.645 2.29937 142.341 1.74919ZM138.05 8.75081H131.738V3.49839H138.041C138.289 4.35352 138.412 5.24299 138.407 6.13674C138.409 7.02165 138.289 7.90225 138.05 8.75081Z" fill="#C41442"/>
<path d="M15.6221 0H0V10.5H5.00963V8.75081H15.6082C15.9141 8.20094 16.1539 7.61339 16.3218 7.00162C16.5651 6.14552 16.6869 5.25655 16.6833 4.36326C16.6884 3.47819 16.5682 2.59723 16.3265 1.74919C16.1623 1.13758 15.9256 0.54994 15.6221 0ZM5.00963 7.00162V1.74919H11.3215C11.7971 3.46449 11.7971 5.28633 11.3215 7.00162H5.00963Z" fill="#C41442"/>
<path d="M178.474 0H168.46L165.123 10.5H170.133L170.689 8.75081H178.474V10.5H183.493V0.00486361H178.474V0ZM178.474 7.00162H171.245L172.913 1.74919H178.474V7.00162Z" fill="#C41442"/>
<path d="M88.3428 0V10.5H105.031V8.75081H93.3478V5.92781H102.028V4.17862H93.3478V1.74919H105.031V0H88.3428Z" fill="#C41442"/>
</svg>
