<svg width="200" height="58" viewBox="0 0 200 58" fill="none" xmlns="http://www.w3.org/2000/svg">
<path d="M10.8368 29.0782C10.8231 26.1448 9.67703 23.3356 7.64769 21.2613C5.61835 19.1871 2.86989 18.0156 0 18.0017V40.0034C6.02207 40.0034 10.8368 35.0796 10.8368 29.0782Z" fill="#282828"/>
<path d="M25.8907 29.0782C25.89 33.5899 24.7541 38.0257 22.5921 41.9591C20.4301 45.8926 17.3148 49.1917 13.5453 51.5393L21.3723 56.1552C29.0487 49.6945 34.0164 40.0034 34.0164 29.0757C34.0164 18.148 29.0487 8.45949 21.3723 1.99626L13.5453 6.61213C17.3155 8.9602 20.4313 12.26 22.5933 16.1945C24.7553 20.1289 25.8909 24.5657 25.8907 29.0782Z" fill="#282828"/>
<path d="M22.4291 29.0782C22.4291 20.1544 17.4613 12.4621 10.0837 8.61596L0 14.6148C3.75289 14.6148 7.35206 16.1386 10.0058 18.8511C12.6594 21.5635 14.1503 25.2423 14.1503 29.0782C14.1503 32.9142 12.6594 36.593 10.0058 39.3054C7.35206 42.0178 3.75289 43.5416 0 43.5416L10.0862 49.543C17.4613 45.6969 22.4291 38.0021 22.4291 29.0782Z" fill="#282828"/>
<path d="M24.5352 0C28.6039 3.58361 31.8671 8.02346 34.1014 13.0157C36.3357 18.0078 37.4884 23.4345 37.4806 28.9243C37.4886 34.4361 36.3367 39.8852 34.1031 44.9019C31.8695 49.9186 28.6064 54.3857 24.5352 58L49.0729 43.5366V14.6148L24.5352 0Z" fill="#282828"/>
<path d="M54.6283 32.2733V25.7318L49.0852 22.4611L43.5421 25.7318V32.2733L49.0852 35.544L54.6283 32.2733Z" fill="#30A152"/>
<path d="M66.2082 33.5932H63.9095V22.5595H68.9588C70.0929 22.5595 70.9801 22.896 71.6205 23.569C72.2423 24.2602 72.5875 25.165 72.5875 26.104C72.5875 27.0431 72.2423 27.9479 71.6205 28.6391C70.9736 29.3222 70.0888 29.6637 68.9662 29.6637H66.2082V33.5932ZM68.6502 27.6044C69.0676 27.6207 69.4758 27.4756 69.7933 27.1981C69.9348 27.057 70.0473 26.8884 70.124 26.7023C70.2008 26.5161 70.2403 26.3162 70.2403 26.1141C70.2403 25.9121 70.2008 25.7121 70.124 25.526C70.0473 25.3398 69.9348 25.1713 69.7933 25.0302C69.475 24.7545 69.0672 24.6104 68.6502 24.6264H66.2082V27.6044H68.6502Z" fill="#282828"/>
<path d="M79.1363 33.7925C78.3911 33.8167 77.6489 33.6861 76.9545 33.4084C76.2602 33.1308 75.6282 32.712 75.0969 32.1774C74.0742 31.0708 73.5044 29.6062 73.5044 28.0839C73.5044 26.5616 74.0742 25.097 75.0969 23.9904C75.6282 23.4558 76.2602 23.037 76.9545 22.7594C77.6489 22.4817 78.3911 22.351 79.1363 22.3753C80.7824 22.3753 82.1338 22.9103 83.1905 23.9803C84.2473 25.0504 84.779 26.4182 84.7856 28.0839C84.7856 29.7495 84.2539 31.1174 83.1905 32.1875C82.1272 33.2575 80.7758 33.7925 79.1363 33.7925ZM76.7635 30.6808C77.0725 31.005 77.4418 31.2626 77.8498 31.4385C78.2577 31.6145 78.696 31.7051 79.1388 31.7051C79.5816 31.7051 80.0198 31.6145 80.4278 31.4385C80.8357 31.2626 81.2051 31.005 81.514 30.6808C82.1014 29.9485 82.4224 29.0308 82.4224 28.0839C82.4224 27.137 82.1014 26.2193 81.514 25.487C81.2051 25.1628 80.8357 24.9052 80.4278 24.7292C80.0198 24.5533 79.5816 24.4627 79.1388 24.4627C78.696 24.4627 78.2577 24.5533 77.8498 24.7292C77.4418 24.9052 77.0725 25.1628 76.7635 25.487C76.1836 26.2227 75.8673 27.1391 75.8673 28.0839C75.8673 29.0287 76.1836 29.9451 76.7635 30.6808Z" fill="#282828"/>
<path d="M91.5928 33.7925C90.8396 33.8155 90.0894 33.6862 89.3852 33.4121C88.681 33.1379 88.0366 32.7243 87.4892 32.195C86.3946 31.13 85.8473 29.7596 85.8473 28.0839C85.8473 26.4081 86.3946 25.0378 87.4892 23.9728C88.0366 23.4435 88.681 23.0299 89.3852 22.7557C90.0894 22.4816 90.8396 22.3523 91.5928 22.3753C93.6109 22.3753 95.1162 23.2745 96.1088 25.0731L94.1335 26.0649C93.89 25.5951 93.5298 25.1991 93.0891 24.9166C92.6445 24.6188 92.1243 24.4609 91.5928 24.4624C91.1404 24.4486 90.6904 24.5328 90.2721 24.7094C89.8538 24.886 89.4767 25.151 89.1657 25.487C88.55 26.2057 88.2106 27.1286 88.2106 28.0839C88.2106 29.0392 88.55 29.9621 89.1657 30.6808C89.4767 31.0168 89.8538 31.2818 90.2721 31.4584C90.6904 31.635 91.1404 31.7192 91.5928 31.7054C92.1231 31.7086 92.6429 31.5543 93.0891 31.2612C93.5333 30.9788 93.8943 30.5785 94.1335 30.1029L96.1088 31.077C95.0849 32.8874 93.5796 33.7925 91.5928 33.7925Z" fill="#282828"/>
<path d="M106.928 33.5932H104.175L101.474 29.5552L98.7581 33.5932H96.0199L99.9358 27.935L96.2618 22.5595H98.9976L101.467 26.3299L103.911 22.5595H106.676L103.012 27.9173L106.928 33.5932Z" fill="#282828"/>
<path d="M110.158 33.5932H107.936V22.5595H110.232V29.689L115.234 22.5595H117.597V33.5932H115.298V26.2012L110.158 33.5932Z" fill="#282828"/>
<path d="M131.328 33.5932H129.012V25.8681L125.96 33.5932H124.972L121.928 25.8681V33.5932H119.632V22.5595H122.841L125.466 29.2297L128.088 22.5645H131.325L131.328 33.5932Z" fill="#282828"/>
<path d="M136.994 33.7925C136.091 33.8008 135.194 33.6294 134.355 33.2878C133.655 33.0266 133.031 32.5881 132.542 32.0133L133.74 30.441C134.141 30.857 134.631 31.1716 135.172 31.3597C135.724 31.5769 136.309 31.6914 136.9 31.6979C137.475 31.7292 138.048 31.5954 138.552 31.3117C138.731 31.2129 138.88 31.0674 138.986 30.89C139.091 30.7126 139.149 30.5098 139.152 30.3022C139.152 29.461 138.359 29.0404 136.772 29.0404H134.587V26.9583H136.772C137.321 26.9823 137.869 26.8806 138.374 26.6605C138.549 26.5942 138.7 26.4748 138.807 26.3182C138.914 26.1617 138.971 25.9756 138.972 25.7848C138.972 25.5798 138.914 25.3791 138.805 25.2071C138.696 25.0351 138.54 24.8991 138.357 24.8157C137.864 24.5718 137.319 24.4557 136.772 24.4775C136.234 24.4605 135.698 24.5525 135.195 24.7483C134.692 24.9441 134.232 25.2397 133.841 25.6182L132.693 24.1469C133.191 23.5858 133.808 23.1496 134.498 22.8724C135.292 22.5446 136.143 22.3816 136.999 22.3929C138.27 22.3929 139.3 22.663 140.09 23.203C140.457 23.4303 140.758 23.7517 140.965 24.1351C141.172 24.5185 141.278 24.9507 141.271 25.3886C141.277 25.7001 141.218 26.0094 141.098 26.2958C140.978 26.5821 140.799 26.839 140.574 27.0492C140.118 27.4927 139.545 27.7893 138.925 27.9022C139.57 27.9751 140.175 28.2562 140.653 28.7047C140.911 28.9328 141.115 29.2169 141.251 29.5361C141.386 29.8554 141.451 30.2017 141.438 30.5496C141.441 31.0131 141.33 31.4698 141.114 31.8774C140.898 32.285 140.585 32.6304 140.204 32.8815C139.358 33.4872 138.288 33.7909 136.994 33.7925Z" fill="#282828"/>
<path d="M153.041 33.5932H150.421L149.757 31.7231H145.127L144.448 33.5932H141.826L146.001 22.5595H148.883L153.041 33.5932ZM149.125 29.6562L147.441 24.9091L145.759 29.6562H149.125Z" fill="#282828"/>
<path d="M165.514 22.5595H167.83V31.5237H168.818V35.6273H166.502V33.5932H154.055V22.5595H156.354V31.5237H159.786V22.5595H162.1V31.5237H165.514V22.5595Z" fill="#282828"/>
<path d="M172.378 33.5932H170.156V22.5595H172.455V29.689L177.455 22.5595H179.818V33.5932H177.519V26.2012L172.378 33.5932Z" fill="#282828"/>
<path d="M186.556 33.5932H184.242V24.6264H181.087V22.5595H189.697V24.6264H186.556V33.5932Z" fill="#282828"/>
<path d="M200 33.5932H197.378L196.716 31.7231H192.087L191.405 33.5932H188.783L192.961 22.5595H195.835L200 33.5932ZM196.082 29.6562L194.398 24.9091L192.714 29.6562H196.082Z" fill="#282828"/>
</svg>
