<svg width="30" height="30" viewBox="0 0 30 30" fill="none" xmlns="http://www.w3.org/2000/svg">
<rect y="0.393066" width="29.2135" height="29.2135" rx="5.8427" fill="white"/>
<path fill-rule="evenodd" clip-rule="evenodd" d="M23.0001 14.9998C23.0001 19.418 19.4184 22.9998 15.0001 22.9998C10.5818 22.9998 7.00012 19.418 7.00012 14.9998C7.00012 10.5815 10.5818 6.99976 15.0001 6.99976C19.4184 6.99976 23.0001 10.5815 23.0001 14.9998ZM15.2868 12.9057C14.5087 13.2294 12.9535 13.8992 10.6214 14.9153C10.2427 15.0659 10.0443 15.2132 10.0262 15.3573C9.99571 15.6008 10.3006 15.6966 10.7158 15.8272C10.7722 15.8449 10.8308 15.8633 10.8907 15.8828C11.2992 16.0156 11.8487 16.1709 12.1343 16.1771C12.3934 16.1827 12.6826 16.0759 13.0019 15.8567C15.1809 14.3858 16.3057 13.6423 16.3763 13.6263C16.4261 13.615 16.4952 13.6007 16.542 13.6423C16.5887 13.6839 16.5841 13.7626 16.5792 13.7838C16.549 13.9125 15.3522 15.0251 14.7329 15.6009C14.5398 15.7804 14.4028 15.9078 14.3748 15.9369C14.3121 16.002 14.2482 16.0636 14.1868 16.1228C13.8073 16.4886 13.5227 16.763 14.2025 17.211C14.5292 17.4262 14.7906 17.6042 15.0514 17.7818C15.3362 17.9758 15.6203 18.1693 15.9879 18.4102C16.0815 18.4716 16.1709 18.5354 16.258 18.5975C16.5895 18.8337 16.8873 19.046 17.2552 19.0122C17.4689 18.9925 17.6898 18.7915 17.8019 18.192C18.0669 16.7752 18.5879 13.7054 18.7083 12.4404C18.7188 12.3296 18.7055 12.1877 18.6949 12.1255C18.6842 12.0632 18.662 11.9745 18.581 11.9088C18.4852 11.831 18.3372 11.8146 18.271 11.8158C17.9701 11.8211 17.5085 11.9816 15.2868 12.9057Z" fill="url(#paint0_linear_0_475)"/>
<defs>
<linearGradient id="paint0_linear_0_475" x1="15.0001" y1="6.99976" x2="15.0001" y2="22.8811" gradientUnits="userSpaceOnUse">
<stop stop-color="#2AABEE"/>
<stop offset="1" stop-color="#229ED9"/>
</linearGradient>
</defs>
</svg>
