<svg width="1340" height="836" viewBox="0 0 1340 836" fill="none" xmlns="http://www.w3.org/2000/svg">
<g opacity="0.5">
<path fill-rule="evenodd" clip-rule="evenodd" d="M346.673 198.816L292.907 159.413L306.747 296.683L441.796 268.531L388.031 229.127L484.977 96.8172L569.357 158.658C728.99 275.65 917.8 13.6272 760.236 -101.849L634.497 -194L346.673 198.816ZM515.129 55.3599L645.411 -122.446L726.345 -63.1316C835.804 17.089 705.522 194.895 596.062 114.675L515.129 55.3599Z" fill="white"/>
<path d="M605.13 515.956L456.24 406.838L591.05 378.547L605.13 515.956Z" fill="white"/>
<path fill-rule="evenodd" clip-rule="evenodd" d="M516.932 439.156C486.729 480.378 444.983 511.717 396.975 529.212C348.967 546.708 296.853 549.572 247.222 537.445C197.591 525.317 152.673 498.741 118.148 461.078C83.6232 423.415 61.0418 376.356 53.2597 325.853C45.4775 275.349 52.8441 223.67 74.4279 177.348C96.0117 131.027 130.843 92.1451 174.518 65.6193C218.192 39.0934 268.749 26.1151 319.793 28.3253C370.838 30.5356 420.078 47.8353 461.287 78.0367L490.99 37.4992C477.078 27.3033 462.399 18.3384 447.123 10.6635C408.346 -8.81737 365.715 -19.9871 321.975 -21.8811C261.002 -24.5214 200.613 -9.01862 148.444 22.6666C96.2742 54.3518 54.6679 100.796 28.8861 156.127C3.10424 211.458 -5.69516 273.189 3.60064 333.516C12.8964 393.842 39.8698 450.054 81.11 495.042C122.35 540.031 176.005 571.776 235.289 586.262C294.573 600.749 356.824 597.327 414.169 576.429C455.308 561.437 492.596 537.935 523.707 507.67C535.964 495.746 547.262 482.773 557.458 468.857L516.932 439.156Z" fill="white"/>
<path fill-rule="evenodd" clip-rule="evenodd" d="M993.327 567.184L1047.09 606.587L1033.25 469.317L898.204 497.469L951.969 536.873L855.023 669.183L770.643 607.342C611.01 490.351 422.2 752.373 579.764 867.849L705.503 960L993.327 567.184ZM824.871 710.64L694.589 888.446L613.655 829.132C504.196 748.911 634.478 571.105 743.937 651.326L824.871 710.64Z" fill="white"/>
<path d="M734.87 250.044L883.76 359.162L748.949 387.453L734.87 250.044Z" fill="white"/>
<path fill-rule="evenodd" clip-rule="evenodd" d="M823.067 326.844C853.271 285.623 895.017 254.283 943.025 236.788C991.033 219.292 1043.15 216.428 1092.78 228.555C1142.41 240.683 1187.33 267.259 1221.85 304.922C1256.38 342.585 1278.96 389.644 1286.74 440.147C1294.52 490.651 1287.16 542.331 1265.57 588.652C1243.99 634.973 1209.16 673.855 1165.48 700.381C1121.81 726.907 1071.25 739.885 1020.21 737.675C969.162 735.464 919.922 718.165 878.713 687.963L849.01 728.501C862.922 738.697 877.601 747.662 892.877 755.337C931.654 774.817 974.285 785.987 1018.02 787.881C1079 790.521 1139.39 775.019 1191.56 743.333C1243.73 711.648 1285.33 665.204 1311.11 609.873C1336.9 554.542 1345.7 492.811 1336.4 432.484C1327.1 372.158 1300.13 315.946 1258.89 270.958C1217.65 225.969 1164 194.224 1104.71 179.738C1045.43 165.251 983.176 168.673 925.831 189.571C884.692 204.563 847.404 228.065 816.293 258.33C804.036 270.254 792.738 283.227 782.542 297.143L823.067 326.844Z" fill="white"/>
</g>
</svg>
