<svg width="209" height="73" viewBox="0 0 209 73" fill="none" xmlns="http://www.w3.org/2000/svg">
<path d="M66.6799 25.0786H73.8304C75.6569 25.0786 77.2093 25.6996 78.4878 26.9416C79.7481 28.1836 80.3782 29.7087 80.3782 31.5168C80.3782 33.325 79.7481 34.8501 78.4878 36.0921C77.2093 37.3341 75.6569 37.9551 73.8304 37.9551H70.4606V44.2563H66.6799V25.0786ZM70.4606 34.4209H73.8304C74.634 34.4209 75.3007 34.1469 75.8304 33.599C76.36 33.0328 76.6249 32.3387 76.6249 31.5168C76.6249 30.6767 76.36 29.9826 75.8304 29.4347C75.3007 28.8868 74.634 28.6128 73.8304 28.6128H70.4606V34.4209Z" fill="white"/>
<path d="M98.8425 41.7632C96.9065 43.681 94.5504 44.6399 91.7742 44.6399C88.998 44.6399 86.6419 43.681 84.7058 41.7632C82.7881 39.8089 81.8292 37.4437 81.8292 34.6675C81.8292 31.873 82.7881 29.5169 84.7058 27.5991C86.6419 25.6631 88.998 24.6951 91.7742 24.6951C94.5504 24.6951 96.9065 25.6631 98.8425 27.5991C100.779 29.5169 101.747 31.873 101.747 34.6675C101.747 37.4619 100.779 39.8272 98.8425 41.7632ZM87.3633 39.1879C88.5322 40.3568 90.0025 40.9413 91.7742 40.9413C93.5458 40.9413 95.0161 40.3568 96.185 39.1879C97.3722 38.0007 97.9658 36.4939 97.9658 34.6675C97.9658 32.841 97.3722 31.3342 96.185 30.147C94.9979 28.9598 93.5276 28.3662 91.7742 28.3662C90.0208 28.3662 88.5505 28.9598 87.3633 30.147C86.1761 31.3342 85.5825 32.841 85.5825 34.6675C85.5825 36.4939 86.1761 38.0007 87.3633 39.1879Z" fill="white"/>
<path d="M101.882 25.0786H115.992V28.695H110.814V44.2563H107.033V28.695H101.882V25.0786Z" fill="white"/>
<path d="M133.142 41.7632C131.206 43.681 128.85 44.6399 126.074 44.6399C123.297 44.6399 120.941 43.681 119.005 41.7632C117.087 39.8089 116.129 37.4437 116.129 34.6675C116.129 31.873 117.087 29.5169 119.005 27.5991C120.941 25.6631 123.297 24.6951 126.074 24.6951C128.85 24.6951 131.206 25.6631 133.142 27.5991C135.078 29.5169 136.046 31.873 136.046 34.6675C136.046 37.4619 135.078 39.8272 133.142 41.7632ZM121.663 39.1879C122.832 40.3568 124.302 40.9413 126.074 40.9413C127.845 40.9413 129.316 40.3568 130.484 39.1879C131.672 38.0007 132.265 36.4939 132.265 34.6675C132.265 32.841 131.672 31.3342 130.484 30.147C129.297 28.9598 127.827 28.3662 126.074 28.3662C124.32 28.3662 122.85 28.9598 121.663 30.147C120.476 31.3342 119.882 32.841 119.882 34.6675C119.882 36.4939 120.476 38.0007 121.663 39.1879Z" fill="white"/>
<path d="M147.799 44.6399C144.931 44.6399 142.548 43.681 140.648 41.7632C138.767 39.8637 137.827 37.4985 137.827 34.6675C137.827 31.8182 138.767 29.453 140.648 27.5717C142.548 25.654 144.931 24.6951 147.799 24.6951C149.534 24.6951 151.132 25.106 152.593 25.9279C154.073 26.7316 155.223 27.8274 156.045 29.2155L152.785 31.1059C152.31 30.2475 151.634 29.5808 150.758 29.1059C149.881 28.6128 148.895 28.3662 147.799 28.3662C145.936 28.3662 144.429 28.9507 143.278 30.1196C142.146 31.3068 141.58 32.8228 141.58 34.6675C141.58 36.4939 142.146 38.0007 143.278 39.1879C144.429 40.3568 145.936 40.9413 147.799 40.9413C148.895 40.9413 149.881 40.7039 150.758 40.229C151.653 39.7359 152.329 39.0692 152.785 38.229L156.045 40.1194C155.223 41.5075 154.073 42.6125 152.593 43.4344C151.132 44.238 149.534 44.6399 147.799 44.6399Z" fill="white"/>
<path d="M169.272 32.6949V25.0786H173.025V44.2563H169.272V36.3113H162.149V44.2563H158.368V25.0786H162.149V32.6949H169.272Z" fill="white"/>
<path d="M193.026 44.2563H188.916L187.766 40.8043H180.122L178.971 44.2563H174.889L181.601 25.0786H186.286L193.026 44.2563ZM183.957 29.4347L181.327 37.2702H186.588L183.957 29.4347Z" fill="white"/>
<path d="M198.669 32.3387H202.23C204.111 32.3387 205.637 32.8958 206.805 34.0099C207.993 35.1058 208.586 36.5304 208.586 38.2838C208.586 40.0372 207.993 41.4801 206.805 42.6125C205.637 43.7084 204.111 44.2563 202.23 44.2563H194.888V25.0786H206.942V28.695H198.669V32.3387ZM198.669 40.7221H202.23C202.997 40.7221 203.618 40.503 204.093 40.0646C204.586 39.6263 204.833 39.0327 204.833 38.2838C204.833 37.535 204.586 36.9505 204.093 36.5304C203.618 36.0921 202.997 35.8729 202.23 35.8729H198.669V40.7221Z" fill="white"/>
<path d="M23.6484 40.0412V26.4197C10.5601 26.4197 3.76191 38.6743 3.7619 47.9681C3.7619 58.1071 12.4196 68.8796 25.3006 68.8796C33.1657 68.8796 41.9296 64.3144 44.5165 56.8833C38.8989 63.198 34.6904 66.3543 27.6872 65.7985C18.9239 65.1031 11.583 58.7406 11.583 50.5685C11.583 45.6191 14.3789 41.1556 18.124 40.0412H23.6484Z" fill="white" fill-opacity="0.5"/>
<path fill-rule="evenodd" clip-rule="evenodd" d="M23.6178 39.9962H18.1419L25.724 48.4178L33.3061 39.9962H27.8301V26.5246H36.4242C52.6825 26.5246 52.4719 0 36.4242 0H23.6178V39.9962ZM27.8152 22.3143V4.21024H36.0582C47.2065 4.21024 47.2065 22.3143 36.0582 22.3143H27.8152Z" fill="white"/>
<path d="M56.1427 48.4572H40.9785L48.5381 40.038L56.1427 48.4572Z" fill="white"/>
<path fill-rule="evenodd" clip-rule="evenodd" d="M46.5694 47.6515C46.5694 51.8486 45.3248 55.9515 42.9931 59.4413C40.6613 62.931 37.347 65.651 33.4694 67.2571C29.5918 68.8633 25.3249 69.2835 21.2085 68.4647C17.092 67.6459 13.3108 65.6248 10.343 62.657C7.37518 59.6892 5.35408 55.908 4.53527 51.7915C3.71645 47.6751 4.1367 43.4082 5.74286 39.5306C7.34902 35.653 10.069 32.3387 13.5587 30.0069C17.0485 27.6752 21.1514 26.4306 25.3485 26.4306V22.3031C23.9315 22.3031 22.5236 22.4218 21.1387 22.6551C17.6233 23.2471 14.256 24.5769 11.2656 26.5751C7.09709 29.3604 3.84811 33.3193 1.92955 37.9511C0.0109831 42.5829 -0.491001 47.6796 0.487075 52.5968C1.46515 57.5139 3.87936 62.0305 7.4244 65.5756C10.9694 69.1206 15.4861 71.5349 20.4032 72.5129C25.3204 73.491 30.4171 72.989 35.0489 71.0704C39.6807 69.1519 43.6396 65.9029 46.4249 61.7344C48.4231 58.744 49.7529 55.3767 50.3449 51.8613C50.5782 50.4764 50.6969 49.0685 50.6969 47.6515H46.5694Z" fill="white"/>
</svg>
