<svg width="197" height="69" viewBox="0 0 197 69" fill="none" xmlns="http://www.w3.org/2000/svg">
<path d="M62.6606 23.567H69.3802C71.0966 23.567 72.5555 24.1505 73.7569 25.3177C74.9412 26.4848 75.5333 27.918 75.5333 29.6171C75.5333 31.3163 74.9412 32.7495 73.7569 33.9166C72.5555 35.0838 71.0966 35.6673 69.3802 35.6673H66.2135V41.5888H62.6606V23.567ZM66.2135 32.3462H69.3802C70.1354 32.3462 70.7619 32.0887 71.2596 31.5738C71.7574 31.0417 72.0062 30.3895 72.0062 29.6171C72.0062 28.8276 71.7574 28.1754 71.2596 27.6605C70.7619 27.1456 70.1354 26.8881 69.3802 26.8881H66.2135V32.3462Z" fill="#282828"/>
<path d="M92.8847 39.2459C91.0654 41.0481 88.8513 41.9492 86.2424 41.9492C83.6336 41.9492 81.4194 41.0481 79.6001 39.2459C77.7979 37.4094 76.8968 35.1867 76.8968 32.5779C76.8968 29.9518 77.7979 27.7377 79.6001 25.9356C81.4194 24.1162 83.6336 23.2065 86.2424 23.2065C88.8513 23.2065 91.0654 24.1162 92.8847 25.9356C94.7041 27.7377 95.6137 29.9518 95.6137 32.5779C95.6137 35.2039 94.7041 37.4266 92.8847 39.2459ZM82.0974 36.8259C83.1959 37.9243 84.5776 38.4736 86.2424 38.4736C87.9073 38.4736 89.289 37.9243 90.3874 36.8259C91.5031 35.7102 92.0609 34.2942 92.0609 32.5779C92.0609 30.8615 91.5031 29.4455 90.3874 28.3299C89.2718 27.2142 87.8901 26.6564 86.2424 26.6564C84.5947 26.6564 83.213 27.2142 82.0974 28.3299C80.9818 29.4455 80.424 30.8615 80.424 32.5779C80.424 34.2942 80.9818 35.7102 82.0974 36.8259Z" fill="#282828"/>
<path d="M95.7413 23.567H109V26.9654H104.134V41.5888H100.581V26.9654H95.7413V23.567Z" fill="#282828"/>
<path d="M125.117 39.2459C123.297 41.0481 121.083 41.9492 118.474 41.9492C115.866 41.9492 113.651 41.0481 111.832 39.2459C110.03 37.4094 109.129 35.1867 109.129 32.5779C109.129 29.9518 110.03 27.7377 111.832 25.9356C113.651 24.1162 115.866 23.2065 118.474 23.2065C121.083 23.2065 123.297 24.1162 125.117 25.9356C126.936 27.7377 127.846 29.9518 127.846 32.5779C127.846 35.2039 126.936 37.4266 125.117 39.2459ZM114.329 36.8259C115.428 37.9243 116.81 38.4736 118.474 38.4736C120.139 38.4736 121.521 37.9243 122.619 36.8259C123.735 35.7102 124.293 34.2942 124.293 32.5779C124.293 30.8615 123.735 29.4455 122.619 28.3299C121.504 27.2142 120.122 26.6564 118.474 26.6564C116.827 26.6564 115.445 27.2142 114.329 28.3299C113.214 29.4455 112.656 30.8615 112.656 32.5779C112.656 34.2942 113.214 35.7102 114.329 36.8259Z" fill="#282828"/>
<path d="M138.89 41.9492C136.196 41.9492 133.956 41.0481 132.171 39.2459C130.403 37.4609 129.519 35.2382 129.519 32.5779C129.519 29.9003 130.403 27.6777 132.171 25.9098C133.956 24.1076 136.196 23.2065 138.89 23.2065C140.521 23.2065 142.023 23.5927 143.396 24.3651C144.786 25.1203 145.867 26.1501 146.64 27.4545L143.576 29.231C143.13 28.4243 142.495 27.7978 141.671 27.3516C140.847 26.8881 139.92 26.6564 138.89 26.6564C137.14 26.6564 135.724 27.2057 134.642 28.3041C133.578 29.4198 133.046 30.8443 133.046 32.5779C133.046 34.2942 133.578 35.7102 134.642 36.8259C135.724 37.9243 137.14 38.4736 138.89 38.4736C139.92 38.4736 140.847 38.2504 141.671 37.8042C142.512 37.3408 143.147 36.7143 143.576 35.9248L146.64 37.7012C145.867 39.0056 144.786 40.044 143.396 40.8164C142.023 41.5716 140.521 41.9492 138.89 41.9492Z" fill="#282828"/>
<path d="M159.069 30.7242V23.567H162.596V41.5888H159.069V34.1226H152.375V41.5888H148.822V23.567H152.375V30.7242H159.069Z" fill="#282828"/>
<path d="M181.391 41.5888H177.529L176.448 38.3448H169.265L168.184 41.5888H164.348L170.655 23.567H175.058L181.391 41.5888ZM172.869 27.6605L170.398 35.0237H175.341L172.869 27.6605Z" fill="#282828"/>
<path d="M186.694 30.3895H190.041C191.809 30.3895 193.242 30.913 194.34 31.96C195.456 32.9898 196.014 34.3286 196.014 35.9763C196.014 37.624 195.456 38.9799 194.34 40.044C193.242 41.0738 191.809 41.5888 190.041 41.5888H183.141V23.567H194.469V26.9654H186.694V30.3895ZM186.694 38.2676H190.041C190.762 38.2676 191.345 38.0616 191.791 37.6497C192.255 37.2378 192.487 36.68 192.487 35.9763C192.487 35.2726 192.255 34.7233 191.791 34.3286C191.345 33.9166 190.762 33.7107 190.041 33.7107H186.694V38.2676Z" fill="#282828"/>
<path d="M22.2228 37.6279V24.8274C9.92338 24.8274 3.53498 36.3434 3.53497 45.077C3.53497 54.6049 11.6709 64.7281 23.7755 64.7281C31.1665 64.7281 39.4022 60.438 41.8331 53.4548C36.5541 59.389 32.5993 62.355 26.0182 61.8327C17.7831 61.1792 10.8846 55.2002 10.8846 47.5207C10.8846 42.8696 13.512 38.6751 17.0314 37.6279H22.2228Z" fill="#00A9F2"/>
<path fill-rule="evenodd" clip-rule="evenodd" d="M22.1943 37.5855H17.0484L24.1735 45.4995L31.2986 37.5855H26.1527V24.9258H34.2287C49.5071 24.9258 49.3092 0 34.2287 0H22.1943V37.5855ZM26.1387 20.9693V3.95647H33.8848C44.3612 3.95647 44.3612 20.9693 33.8848 20.9693H26.1387Z" fill="#282828"/>
<path d="M52.7588 45.5365H38.5086L45.6125 37.6248L52.7588 45.5365Z" fill="#282828"/>
<path fill-rule="evenodd" clip-rule="evenodd" d="M43.7625 44.7794C43.7625 48.7235 42.5929 52.5791 40.4017 55.8585C38.2104 59.1379 35.096 61.6939 31.452 63.2033C27.8081 64.7126 23.7985 65.1076 19.9301 64.3381C16.0618 63.5686 12.5085 61.6693 9.71957 58.8804C6.93065 56.0915 5.03137 52.5382 4.26191 48.6698C3.49244 44.8015 3.88736 40.7919 5.39671 37.1479C6.90607 33.504 9.46207 30.3895 12.7415 28.1983C16.0209 26.0071 19.8765 24.8375 23.8206 24.8375V20.9588C22.4891 20.9588 21.166 21.0704 19.8645 21.2896C16.5611 21.8459 13.3968 23.0956 10.5866 24.9733C6.66932 27.5907 3.61617 31.311 1.81325 35.6636C0.0103211 40.0163 -0.461406 44.8058 0.457717 49.4266C1.37684 54.0473 3.64553 58.2917 6.9769 61.6231C10.3083 64.9545 14.5527 67.2232 19.1734 68.1423C23.7942 69.0614 28.5837 68.5897 32.9364 66.7868C37.289 64.9838 41.0093 61.9307 43.6267 58.0134C45.5044 55.2032 46.7541 52.0389 47.3104 48.7355C47.5296 47.434 47.6412 46.1109 47.6412 44.7794H43.7625Z" fill="#282828"/>
</svg>
