<svg width="30" height="30" viewBox="0 0 30 30" fill="none" xmlns="http://www.w3.org/2000/svg">
<rect x="0.786621" y="0.393066" width="29.2135" height="29.2135" rx="5.8427" fill="white"/>
<path d="M12.5949 11.2643C12.7367 11.2701 12.8936 11.2767 13.0426 11.6081C13.1445 11.8346 13.3159 12.2568 13.4525 12.5933C13.5531 12.8413 13.6348 13.0427 13.656 13.0849C13.7057 13.1844 13.7388 13.3006 13.6725 13.4334C13.6626 13.4533 13.6534 13.472 13.6446 13.49C13.5948 13.5917 13.5582 13.6664 13.4738 13.7652C13.4407 13.8038 13.4065 13.8454 13.3723 13.8871C13.3036 13.9706 13.2349 14.0541 13.1753 14.1136C13.0755 14.2128 12.9718 14.3206 13.0879 14.5196C13.204 14.7188 13.6033 15.37 14.1948 15.8974C14.8302 16.4639 15.3822 16.7035 15.6625 16.8252C15.7175 16.8491 15.7621 16.8685 15.7948 16.8848C15.9937 16.9843 16.1098 16.9678 16.2259 16.8348C16.342 16.7021 16.723 16.2541 16.8557 16.0551C16.9883 15.8559 17.121 15.8891 17.3034 15.9554C17.4858 16.0217 18.464 16.5031 18.663 16.6026C18.7017 16.622 18.738 16.6395 18.7716 16.6557C18.9105 16.7228 19.0043 16.768 19.0443 16.8348C19.0941 16.918 19.0941 17.3162 18.9283 17.7807C18.7625 18.2453 17.9501 18.6933 17.5853 18.7265C17.5502 18.7297 17.5153 18.7338 17.4794 18.738C17.1423 18.7777 16.7168 18.8277 15.1978 18.2287C13.3287 17.4917 12.0964 15.6651 11.8418 15.2878C11.8209 15.2568 11.8066 15.2356 11.799 15.2256L11.7968 15.2226C11.6895 15.0792 10.9866 14.1399 10.9866 13.1678C10.9866 12.2516 11.437 11.7713 11.6442 11.5503C11.6584 11.5352 11.6714 11.5213 11.6831 11.5086C11.8654 11.3095 12.081 11.2596 12.2136 11.2596C12.2209 11.2596 12.2281 11.2596 12.2354 11.2596C12.3607 11.2596 12.4853 11.2596 12.5949 11.2643Z" fill="url(#paint0_linear_0_478)"/>
<path fill-rule="evenodd" clip-rule="evenodd" d="M8.14062 18.9043C7.4338 17.6994 7.06432 16.334 7.06432 14.9203C7.06432 10.5348 10.6466 6.96851 15.0322 6.96851C17.1687 6.96851 19.1607 7.80385 20.6707 9.29782C22.1647 10.8079 23.0001 12.7998 23.0001 14.9364C23.0001 19.3219 19.4177 22.8882 15.0322 22.8882C13.6989 22.8882 12.3816 22.5669 11.225 21.9243L7.00006 23.0328L8.14062 18.9043ZM9.42576 18.4545L9.58641 18.6954L8.91171 21.1372L11.4177 20.4785L11.6587 20.6231C12.6707 21.2336 13.8434 21.5549 15.0322 21.5549C18.6788 21.5549 21.6507 18.583 21.6507 14.9364C21.6507 13.1693 20.9599 11.4986 19.7069 10.2456C18.4699 9.00867 16.7993 8.3179 15.0322 8.3179C11.3856 8.3179 8.41372 11.2737 8.41372 14.9364C8.41372 16.1733 8.76713 17.3942 9.42576 18.4545Z" fill="url(#paint1_linear_0_478)"/>
<defs>
<linearGradient id="paint0_linear_0_478" x1="7.00006" y1="15.0015" x2="23.0001" y2="15.0015" gradientUnits="userSpaceOnUse">
<stop stop-color="#20B038"/>
<stop offset="1" stop-color="#60D66A"/>
</linearGradient>
<linearGradient id="paint1_linear_0_478" x1="7.00006" y1="15.0015" x2="23.0001" y2="15.0015" gradientUnits="userSpaceOnUse">
<stop stop-color="#20B038"/>
<stop offset="1" stop-color="#60D66A"/>
</linearGradient>
</defs>
</svg>
