<svg width="20" height="20" viewBox="0 0 20 20" fill="none" xmlns="http://www.w3.org/2000/svg">
<g clip-path="url(#clip0_0_276)">
<path d="M9.58961 20H10.4224C14.9432 20 17.204 20 18.608 18.596C20.012 17.192 20 14.932 20 10.4224V9.57762C20 5.06879 20 2.808 18.608 1.404C17.216 4.02331e-06 14.9432 0 10.4224 0H9.58961C5.06801 0 2.808 4.02331e-06 1.404 1.404C-8.9407e-07 2.808 0 5.06719 0 9.57762V10.4224C0 14.932 -8.9407e-07 17.192 1.404 18.596C2.808 20 5.06801 20 9.58961 20Z" fill="#2683ED"/>
<path d="M10.7323 14.4198C6.2227 14.4198 3.48592 11.291 3.37952 6.0918H5.66352C5.73473 9.91102 7.4723 11.5318 8.80434 11.8622V6.0918H10.9939V9.38699C12.2787 9.24461 13.6227 7.74539 14.0755 6.0918H16.2283C15.8835 8.12621 14.4203 9.62539 13.3851 10.2438C14.4203 10.7438 16.0859 12.0526 16.7283 14.4198H14.3611C13.8611 12.8374 12.6355 11.6118 10.9939 11.4454V14.4198H10.7323Z" fill="white"/>
</g>
<defs>
<clipPath id="clip0_0_276">
<rect width="20" height="20" fill="white"/>
</clipPath>
</defs>
</svg>
