<svg width="20" height="20" viewBox="0 0 20 20" fill="none" xmlns="http://www.w3.org/2000/svg">
<path fill-rule="evenodd" clip-rule="evenodd" d="M19.582 5.19376C19.352 4.33341 18.6744 3.65563 17.8139 3.42564C16.2542 3.00781 9.99992 3.00781 9.99992 3.00781C9.99992 3.00781 3.74581 3.00781 2.18611 3.42564C1.3256 3.65563 0.647981 4.33341 0.417994 5.19376C0 6.75362 0 10.0077 0 10.0077C0 10.0077 0 13.2619 0.417994 14.8216C0.647981 15.682 1.3256 16.3599 2.18611 16.5897C3.74581 17.0077 9.99992 17.0077 9.99992 17.0077C9.99992 17.0077 16.2542 17.0077 17.8139 16.5897C18.6744 16.3599 19.352 15.682 19.582 14.8216C20 13.2619 20 10.0077 20 10.0077C20 10.0077 20 6.75362 19.582 5.19376Z" fill="#FF0000"/>
<path fill-rule="evenodd" clip-rule="evenodd" d="M8 13.0077L13.1959 10.0078L8 7.00757V13.0077Z" fill="white"/>
</svg>
